<?plantuml 1.2026.1?><svg xmlns="http://www.w3.org/2000/svg" xmlns:xlink="http://www.w3.org/1999/xlink" contentStyleType="text/css" data-diagram-type="DESCRIPTION" height="949px" preserveAspectRatio="none" style="width:3084px;height:949px;background:#FFFFFF;" version="1.1" viewBox="0 0 3084 949" width="3084px" zoomAndPan="magnify"><title>&lt;font size=18 color=#1A1A1A&gt;&lt;b&gt;Current Architecture&lt;/b&gt;&lt;/font&gt;
&lt;font size=12 color=#888888&gt;Monolithic &#8212; 350+ files in a single module&lt;/font&gt;</title><defs/><g><g class="title" data-source-line="49"><text fill="#1A1A1A" font-family="'Helvetica Neue'" font-size="18" font-weight="bold" lengthAdjust="spacing" textLength="210.1201" x="1430.3632" y="26.708">Current Architecture</text><text fill="#888888" font-family="'Helvetica Neue'" font-size="12" font-weight="bold" lengthAdjust="spacing" textLength="287.3086" x="1391.769" y="42.0918">Monolithic &#8212; 350+ files in a single module</text></g><!--cluster app--><g class="cluster" data-qualified-name="app" data-source-line="53" id="ent0002"><path d="M8.5,104.9419 L151.1479,104.9419 A3.75,3.75 0 0 1 153.6479,107.4419 L160.6479,126.0747 L2575.5,126.0747 A2.5,2.5 0 0 1 2578,128.5747 L2578,885.7419 A2.5,2.5 0 0 1 2575.5,888.2419 L8.5,888.2419 A2.5,2.5 0 0 1 6,885.7419 L6,107.4419 A2.5,2.5 0 0 1 8.5,104.9419" fill="#F0F0F0" style="stroke:#CCCCCC;stroke-width:1.5;"/><line style="stroke:#CCCCCC;stroke-width:1.5;" x1="6" x2="160.6479" y1="126.0747" y2="126.0747"/><text fill="#333333" font-family="'Helvetica Neue'" font-size="13" lengthAdjust="spacing" textLength="141.6479" x="10" y="119.0088">community.xcodeproj</text><text fill="#333333" font-family="'Helvetica Neue'" font-size="13" lengthAdjust="spacing" textLength="98.2808" x="1246.8596" y="140.1416">&#171;single target&#187;</text></g><!--cluster flows--><g class="cluster" data-qualified-name="app.flows" data-source-line="55" id="ent0003"><rect fill="#FFFFFF" height="279.9" rx="4" ry="4" style="stroke:#CCCCCC;stroke-width:1;" width="1254" x="1276" y="177.9419"/><text fill="#333333" font-family="'Helvetica Neue'" font-size="13" font-weight="bold" lengthAdjust="spacing" textLength="80.063" x="1845.7188" y="192.0088">User Flows</text><text fill="#333333" font-family="'Helvetica Neue'" font-size="13" font-weight="bold" lengthAdjust="spacing" textLength="29.9736" x="1930.3076" y="192.0088">(18)</text></g><!--cluster coords--><g class="cluster" data-qualified-name="app.coords" data-source-line="69" id="ent0015"><rect fill="#FFFFFF" height="283.26" rx="4" ry="4" style="stroke:#CCCCCC;stroke-width:1;" width="1190" x="46" y="334.7119"/><text fill="#999999" font-family="'Helvetica Neue'" font-size="11" font-style="italic" lengthAdjust="spacing" textLength="103.4688" x="589.2656" y="346.9223">&#171;static singletons&#187;</text><text fill="#333333" font-family="'Helvetica Neue'" font-size="13" font-weight="bold" lengthAdjust="spacing" textLength="133.9736" x="556.7634" y="361.5835">Data Coordinators</text><text fill="#333333" font-family="'Helvetica Neue'" font-size="13" font-weight="bold" lengthAdjust="spacing" textLength="29.9736" x="695.2629" y="361.5835">(16)</text></g><!--cluster utils--><g class="cluster" data-qualified-name="app.utils" data-source-line="79" id="ent0023"><rect fill="#FFFFFF" height="341.4" rx="4" ry="4" style="stroke:#CCCCCC;stroke-width:1;" width="734" x="1796" y="506.8419"/><text fill="#333333" font-family="'Helvetica Neue'" font-size="13" font-weight="bold" lengthAdjust="spacing" textLength="156.7554" x="2061.9263" y="520.9088">Utilities &amp; Categories</text><text fill="#333333" font-family="'Helvetica Neue'" font-size="13" font-weight="bold" lengthAdjust="spacing" textLength="40.8662" x="2223.2075" y="520.9088">(28+)</text></g><!--cluster extensions--><g class="cluster" data-qualified-name="extensions" data-source-line="94" id="ent0033"><rect fill="#FFFFFF" height="271.26" rx="4" ry="4" style="stroke:#CCCCCC;stroke-width:1;" width="270" x="2618" y="346.7119"/><text fill="#333333" font-family="'Helvetica Neue'" font-size="13" font-weight="bold" lengthAdjust="spacing" textLength="132.5835" x="2686.7083" y="360.7788">Extension Targets</text></g><!--entity fHome--><g class="entity" data-qualified-name="app.flows.fHome" data-source-line="56" id="ent0004"><rect fill="#FFFFFF" height="45.1328" rx="2.5" ry="2.5" style="stroke:#D5D5D5;stroke-width:0.5;" width="78.3906" x="1319.8" y="219.9419"/><rect fill="#FFFFFF" height="10" style="stroke:#D5D5D5;stroke-width:0.5;" width="15" x="1378.1906" y="224.9419"/><rect fill="#FFFFFF" height="2" style="stroke:#D5D5D5;stroke-width:0.5;" width="4" x="1376.1906" y="226.9419"/><rect fill="#FFFFFF" height="2" style="stroke:#D5D5D5;stroke-width:0.5;" width="4" x="1376.1906" y="230.9419"/><text fill="#333333" font-family="'Helvetica Neue'" font-size="13" lengthAdjust="spacing" textLength="38.3906" x="1334.8" y="252.0088">Home</text></g><!--entity fVisitors--><g class="entity" data-qualified-name="app.flows.fVisitors" data-source-line="57" id="ent0005"><rect fill="#FFFFFF" height="45.1328" rx="2.5" ry="2.5" style="stroke:#D5D5D5;stroke-width:0.5;" width="88.0581" x="1432.97" y="219.9419"/><rect fill="#FFFFFF" height="10" style="stroke:#D5D5D5;stroke-width:0.5;" width="15" x="1501.0281" y="224.9419"/><rect fill="#FFFFFF" height="2" style="stroke:#D5D5D5;stroke-width:0.5;" width="4" x="1499.0281" y="226.9419"/><rect fill="#FFFFFF" height="2" style="stroke:#D5D5D5;stroke-width:0.5;" width="4" x="1499.0281" y="230.9419"/><text fill="#333333" font-family="'Helvetica Neue'" font-size="13" lengthAdjust="spacing" textLength="48.0581" x="1447.97" y="252.0088">Visitors</text></g><!--entity fHistory--><g class="entity" data-qualified-name="app.flows.fHistory" data-source-line="58" id="ent0006"><rect fill="#FFFFFF" height="45.1328" rx="2.5" ry="2.5" style="stroke:#D5D5D5;stroke-width:0.5;" width="86.249" x="1555.88" y="219.9419"/><rect fill="#FFFFFF" height="10" style="stroke:#D5D5D5;stroke-width:0.5;" width="15" x="1622.129" y="224.9419"/><rect fill="#FFFFFF" height="2" style="stroke:#D5D5D5;stroke-width:0.5;" width="4" x="1620.129" y="226.9419"/><rect fill="#FFFFFF" height="2" style="stroke:#D5D5D5;stroke-width:0.5;" width="4" x="1620.129" y="230.9419"/><text fill="#333333" font-family="'Helvetica Neue'" font-size="13" lengthAdjust="spacing" textLength="46.249" x="1570.88" y="252.0088">History</text></g><!--entity fAccount--><g class="entity" data-qualified-name="app.flows.fAccount" data-source-line="59" id="ent0007"><rect fill="#FFFFFF" height="45.1328" rx="2.5" ry="2.5" style="stroke:#D5D5D5;stroke-width:0.5;" width="92.7173" x="2286.64" y="219.9419"/><rect fill="#FFFFFF" height="10" style="stroke:#D5D5D5;stroke-width:0.5;" width="15" x="2359.3573" y="224.9419"/><rect fill="#FFFFFF" height="2" style="stroke:#D5D5D5;stroke-width:0.5;" width="4" x="2357.3573" y="226.9419"/><rect fill="#FFFFFF" height="2" style="stroke:#D5D5D5;stroke-width:0.5;" width="4" x="2357.3573" y="230.9419"/><text fill="#333333" font-family="'Helvetica Neue'" font-size="13" lengthAdjust="spacing" textLength="52.7173" x="2301.64" y="252.0088">Account</text></g><!--entity fOnboarding--><g class="entity" data-qualified-name="app.flows.fOnboarding" data-source-line="60" id="ent0008"><rect fill="#FFFFFF" height="45.1328" rx="2.5" ry="2.5" style="stroke:#D5D5D5;stroke-width:0.5;" width="116.3433" x="1974.83" y="219.9419"/><rect fill="#FFFFFF" height="10" style="stroke:#D5D5D5;stroke-width:0.5;" width="15" x="2071.1733" y="224.9419"/><rect fill="#FFFFFF" height="2" style="stroke:#D5D5D5;stroke-width:0.5;" width="4" x="2069.1733" y="226.9419"/><rect fill="#FFFFFF" height="2" style="stroke:#D5D5D5;stroke-width:0.5;" width="4" x="2069.1733" y="230.9419"/><text fill="#333333" font-family="'Helvetica Neue'" font-size="13" lengthAdjust="spacing" textLength="76.3433" x="1989.83" y="252.0088">Onboarding</text></g><!--entity fVideo--><g class="entity" data-qualified-name="app.flows.fVideo" data-source-line="61" id="ent0009"><rect fill="#FFFFFF" height="45.1328" rx="2.5" ry="2.5" style="stroke:#D5D5D5;stroke-width:0.5;" width="125.2109" x="2126.39" y="219.9419"/><rect fill="#FFFFFF" height="10" style="stroke:#D5D5D5;stroke-width:0.5;" width="15" x="2231.6009" y="224.9419"/><rect fill="#FFFFFF" height="2" style="stroke:#D5D5D5;stroke-width:0.5;" width="4" x="2229.6009" y="226.9419"/><rect fill="#FFFFFF" height="2" style="stroke:#D5D5D5;stroke-width:0.5;" width="4" x="2229.6009" y="230.9419"/><text fill="#333333" font-family="'Helvetica Neue'" font-size="13" lengthAdjust="spacing" textLength="85.2109" x="2141.39" y="252.0088">Video Calling</text></g><!--entity fAdmin--><g class="entity" data-qualified-name="app.flows.fAdmin" data-source-line="62" id="ent0010"><rect fill="#FFFFFF" height="45.1328" rx="2.5" ry="2.5" style="stroke:#D5D5D5;stroke-width:0.5;" width="81.6597" x="1677.17" y="219.9419"/><rect fill="#FFFFFF" height="10" style="stroke:#D5D5D5;stroke-width:0.5;" width="15" x="1738.8297" y="224.9419"/><rect fill="#FFFFFF" height="2" style="stroke:#D5D5D5;stroke-width:0.5;" width="4" x="1736.8297" y="226.9419"/><rect fill="#FFFFFF" height="2" style="stroke:#D5D5D5;stroke-width:0.5;" width="4" x="1736.8297" y="230.9419"/><text fill="#333333" font-family="'Helvetica Neue'" font-size="13" lengthAdjust="spacing" textLength="41.6597" x="1692.17" y="252.0088">Admin</text></g><!--entity fContent--><g class="entity" data-qualified-name="app.flows.fContent" data-source-line="63" id="ent0011"><rect fill="#FFFFFF" height="45.1328" rx="2.5" ry="2.5" style="stroke:#D5D5D5;stroke-width:0.5;" width="91.7017" x="2414.15" y="219.9419"/><rect fill="#FFFFFF" height="10" style="stroke:#D5D5D5;stroke-width:0.5;" width="15" x="2485.8517" y="224.9419"/><rect fill="#FFFFFF" height="2" style="stroke:#D5D5D5;stroke-width:0.5;" width="4" x="2483.8517" y="226.9419"/><rect fill="#FFFFFF" height="2" style="stroke:#D5D5D5;stroke-width:0.5;" width="4" x="2483.8517" y="230.9419"/><text fill="#333333" font-family="'Helvetica Neue'" font-size="13" lengthAdjust="spacing" textLength="51.7017" x="2429.15" y="252.0088">Content</text></g><!--entity fAnnounce--><g class="entity" data-qualified-name="app.flows.fAnnounce" data-source-line="64" id="ent0012"><rect fill="#FFFFFF" height="45.1328" rx="2.5" ry="2.5" style="stroke:#D5D5D5;stroke-width:0.5;" width="145.7202" x="1794.14" y="219.9419"/><rect fill="#FFFFFF" height="10" style="stroke:#D5D5D5;stroke-width:0.5;" width="15" x="1919.8602" y="224.9419"/><rect fill="#FFFFFF" height="2" style="stroke:#D5D5D5;stroke-width:0.5;" width="4" x="1917.8602" y="226.9419"/><rect fill="#FFFFFF" height="2" style="stroke:#D5D5D5;stroke-width:0.5;" width="4" x="1917.8602" y="230.9419"/><text fill="#333333" font-family="'Helvetica Neue'" font-size="13" lengthAdjust="spacing" textLength="105.7202" x="1809.14" y="252.0088">Announcements</text></g><!--entity fCreds--><g class="entity" data-qualified-name="app.flows.fCreds" data-source-line="65" id="ent0013"><rect fill="#FFFFFF" height="45.1328" rx="2.5" ry="2.5" style="stroke:#D5D5D5;stroke-width:0.5;" width="160.7451" x="2176.63" y="388.7119"/><rect fill="#FFFFFF" height="10" style="stroke:#D5D5D5;stroke-width:0.5;" width="15" x="2317.3751" y="393.7119"/><rect fill="#FFFFFF" height="2" style="stroke:#D5D5D5;stroke-width:0.5;" width="4" x="2315.3751" y="395.7119"/><rect fill="#FFFFFF" height="2" style="stroke:#D5D5D5;stroke-width:0.5;" width="4" x="2315.3751" y="399.7119"/><text fill="#333333" font-family="'Helvetica Neue'" font-size="13" lengthAdjust="spacing" textLength="120.7451" x="2191.63" y="420.7788">Mobile Credentials</text></g><!--entity fMore--><g class="entity" data-qualified-name="app.flows.fMore" data-source-line="66" id="ent0014"><rect fill="#F5F5F5" height="45.1328" rx="2.5" ry="2.5" style="stroke:#D5D5D5;stroke-width:0.5;" width="117.9175" x="2372.04" y="388.7119"/><rect fill="#F5F5F5" height="10" style="stroke:#D5D5D5;stroke-width:0.5;" width="15" x="2469.9575" y="393.7119"/><rect fill="#F5F5F5" height="2" style="stroke:#D5D5D5;stroke-width:0.5;" width="4" x="2467.9575" y="395.7119"/><rect fill="#F5F5F5" height="2" style="stroke:#D5D5D5;stroke-width:0.5;" width="4" x="2467.9575" y="399.7119"/><text fill="#333333" font-family="'Helvetica Neue'" font-size="13" lengthAdjust="spacing" textLength="61.3882" x="2395.3046" y="420.7788">+ 8 more</text></g><!--entity cAccount--><g class="entity" data-qualified-name="app.coords.cAccount" data-source-line="70" id="ent0016"><rect fill="#FFFFFF" height="45.1328" rx="2.5" ry="2.5" style="stroke:#D5D5D5;stroke-width:0.5;" width="169.5112" x="70.24" y="388.7119"/><rect fill="#FFFFFF" height="10" style="stroke:#D5D5D5;stroke-width:0.5;" width="15" x="219.7512" y="393.7119"/><rect fill="#FFFFFF" height="2" style="stroke:#D5D5D5;stroke-width:0.5;" width="4" x="217.7512" y="395.7119"/><rect fill="#FFFFFF" height="2" style="stroke:#D5D5D5;stroke-width:0.5;" width="4" x="217.7512" y="399.7119"/><text fill="#333333" font-family="'Helvetica Neue'" font-size="13" lengthAdjust="spacing" textLength="129.5112" x="85.24" y="420.7788">AccountCoordinator</text></g><!--entity cVisitor--><g class="entity" data-qualified-name="app.coords.cVisitor" data-source-line="71" id="ent0017"><rect fill="#FFFFFF" height="45.1328" rx="2.5" ry="2.5" style="stroke:#D5D5D5;stroke-width:0.5;" width="158.0791" x="835.96" y="388.7119"/><rect fill="#FFFFFF" height="10" style="stroke:#D5D5D5;stroke-width:0.5;" width="15" x="974.0391" y="393.7119"/><rect fill="#FFFFFF" height="2" style="stroke:#D5D5D5;stroke-width:0.5;" width="4" x="972.0391" y="395.7119"/><rect fill="#FFFFFF" height="2" style="stroke:#D5D5D5;stroke-width:0.5;" width="4" x="972.0391" y="399.7119"/><text fill="#333333" font-family="'Helvetica Neue'" font-size="13" lengthAdjust="spacing" textLength="118.0791" x="850.96" y="420.7788">VisitorCoordinator</text></g><!--entity cDevice--><g class="entity" data-qualified-name="app.coords.cDevice" data-source-line="72" id="ent0018"><rect fill="#FFFFFF" height="45.1328" rx="2.5" ry="2.5" style="stroke:#D5D5D5;stroke-width:0.5;" width="161.2529" x="274.37" y="388.7119"/><rect fill="#FFFFFF" height="10" style="stroke:#D5D5D5;stroke-width:0.5;" width="15" x="415.6229" y="393.7119"/><rect fill="#FFFFFF" height="2" style="stroke:#D5D5D5;stroke-width:0.5;" width="4" x="413.6229" y="395.7119"/><rect fill="#FFFFFF" height="2" style="stroke:#D5D5D5;stroke-width:0.5;" width="4" x="413.6229" y="399.7119"/><text fill="#333333" font-family="'Helvetica Neue'" font-size="13" lengthAdjust="spacing" textLength="121.2529" x="289.37" y="420.7788">DeviceCoordinator</text></g><!--entity cHistory--><g class="entity" data-qualified-name="app.coords.cHistory" data-source-line="73" id="ent0019"><rect fill="#FFFFFF" height="45.1328" rx="2.5" ry="2.5" style="stroke:#D5D5D5;stroke-width:0.5;" width="163.043" x="1029.48" y="388.7119"/><rect fill="#FFFFFF" height="10" style="stroke:#D5D5D5;stroke-width:0.5;" width="15" x="1172.523" y="393.7119"/><rect fill="#FFFFFF" height="2" style="stroke:#D5D5D5;stroke-width:0.5;" width="4" x="1170.523" y="395.7119"/><rect fill="#FFFFFF" height="2" style="stroke:#D5D5D5;stroke-width:0.5;" width="4" x="1170.523" y="399.7119"/><text fill="#333333" font-family="'Helvetica Neue'" font-size="13" lengthAdjust="spacing" textLength="123.043" x="1044.48" y="420.7788">HistoryCoordinator</text></g><!--entity cAuth--><g class="entity" data-qualified-name="app.coords.cAuth" data-source-line="74" id="ent0020"><rect fill="#FFFFFF" height="45.1328" rx="2.5" ry="2.5" style="stroke:#D5D5D5;stroke-width:0.5;" width="147.2627" x="470.37" y="388.7119"/><rect fill="#FFFFFF" height="10" style="stroke:#D5D5D5;stroke-width:0.5;" width="15" x="597.6327" y="393.7119"/><rect fill="#FFFFFF" height="2" style="stroke:#D5D5D5;stroke-width:0.5;" width="4" x="595.6327" y="395.7119"/><rect fill="#FFFFFF" height="2" style="stroke:#D5D5D5;stroke-width:0.5;" width="4" x="595.6327" y="399.7119"/><text fill="#333333" font-family="'Helvetica Neue'" font-size="13" lengthAdjust="spacing" textLength="107.2627" x="485.37" y="420.7788">AuthCoordinator</text></g><!--entity cPush--><g class="entity" data-qualified-name="app.coords.cPush" data-source-line="75" id="ent0021"><rect fill="#FFFFFF" height="45.1328" rx="2.5" ry="2.5" style="stroke:#D5D5D5;stroke-width:0.5;" width="147.8848" x="653.06" y="388.7119"/><rect fill="#FFFFFF" height="10" style="stroke:#D5D5D5;stroke-width:0.5;" width="15" x="780.9448" y="393.7119"/><rect fill="#FFFFFF" height="2" style="stroke:#D5D5D5;stroke-width:0.5;" width="4" x="778.9448" y="395.7119"/><rect fill="#FFFFFF" height="2" style="stroke:#D5D5D5;stroke-width:0.5;" width="4" x="778.9448" y="399.7119"/><text fill="#333333" font-family="'Helvetica Neue'" font-size="13" lengthAdjust="spacing" textLength="107.8848" x="668.06" y="420.7788">PushCoordinator</text></g><!--entity cMore--><g class="entity" data-qualified-name="app.coords.cMore" data-source-line="76" id="ent0022"><rect fill="#F5F5F5" height="45.1328" rx="2.5" ry="2.5" style="stroke:#D5D5D5;stroke-width:0.5;" width="126.1885" x="851.91" y="548.8419"/><rect fill="#F5F5F5" height="10" style="stroke:#D5D5D5;stroke-width:0.5;" width="15" x="958.0985" y="553.8419"/><rect fill="#F5F5F5" height="2" style="stroke:#D5D5D5;stroke-width:0.5;" width="4" x="956.0985" y="555.8419"/><rect fill="#F5F5F5" height="2" style="stroke:#D5D5D5;stroke-width:0.5;" width="4" x="956.0985" y="559.8419"/><text fill="#333333" font-family="'Helvetica Neue'" font-size="13" lengthAdjust="spacing" textLength="69.6592" x="875.1746" y="580.9088">+ 10 more</text></g><!--entity uExt--><g class="entity" data-qualified-name="app.utils.uExt" data-source-line="80" id="ent0024"><rect fill="#FFFFFF" height="45.1328" rx="2.5" ry="2.5" style="stroke:#D5D5D5;stroke-width:0.5;" width="110.5923" x="2123.7" y="548.8419"/><rect fill="#FFFFFF" height="10" style="stroke:#D5D5D5;stroke-width:0.5;" width="15" x="2214.2923" y="553.8419"/><rect fill="#FFFFFF" height="2" style="stroke:#D5D5D5;stroke-width:0.5;" width="4" x="2212.2923" y="555.8419"/><rect fill="#FFFFFF" height="2" style="stroke:#D5D5D5;stroke-width:0.5;" width="4" x="2212.2923" y="559.8419"/><text fill="#333333" font-family="'Helvetica Neue'" font-size="13" lengthAdjust="spacing" textLength="70.5923" x="2138.7" y="580.9088">Extensions</text></g><!--entity uFmt--><g class="entity" data-qualified-name="app.utils.uFmt" data-source-line="81" id="ent0025"><rect fill="#FFFFFF" height="45.1328" rx="2.5" ry="2.5" style="stroke:#D5D5D5;stroke-width:0.5;" width="111.7158" x="2269.14" y="548.8419"/><rect fill="#FFFFFF" height="10" style="stroke:#D5D5D5;stroke-width:0.5;" width="15" x="2360.8558" y="553.8419"/><rect fill="#FFFFFF" height="2" style="stroke:#D5D5D5;stroke-width:0.5;" width="4" x="2358.8558" y="555.8419"/><rect fill="#FFFFFF" height="2" style="stroke:#D5D5D5;stroke-width:0.5;" width="4" x="2358.8558" y="559.8419"/><text fill="#333333" font-family="'Helvetica Neue'" font-size="13" lengthAdjust="spacing" textLength="71.7158" x="2284.14" y="580.9088">Formatters</text></g><!--entity uHelp--><g class="entity" data-qualified-name="app.utils.uHelp" data-source-line="82" id="ent0026"><rect fill="#FFFFFF" height="45.1328" rx="2.5" ry="2.5" style="stroke:#D5D5D5;stroke-width:0.5;" width="89.7529" x="2416.12" y="548.8419"/><rect fill="#FFFFFF" height="10" style="stroke:#D5D5D5;stroke-width:0.5;" width="15" x="2485.8729" y="553.8419"/><rect fill="#FFFFFF" height="2" style="stroke:#D5D5D5;stroke-width:0.5;" width="4" x="2483.8729" y="555.8419"/><rect fill="#FFFFFF" height="2" style="stroke:#D5D5D5;stroke-width:0.5;" width="4" x="2483.8729" y="559.8419"/><text fill="#333333" font-family="'Helvetica Neue'" font-size="13" lengthAdjust="spacing" textLength="49.7529" x="2431.12" y="580.9088">Helpers</text></g><!--entity uNet--><g class="entity" data-qualified-name="app.utils.uNet" data-source-line="83" id="ent0027"><rect fill="#FFFFFF" height="45.1328" rx="2.5" ry="2.5" style="stroke:#D5D5D5;stroke-width:0.5;" width="114.3818" x="1839.81" y="548.8419"/><rect fill="#FFFFFF" height="10" style="stroke:#D5D5D5;stroke-width:0.5;" width="15" x="1934.1918" y="553.8419"/><rect fill="#FFFFFF" height="2" style="stroke:#D5D5D5;stroke-width:0.5;" width="4" x="1932.1918" y="555.8419"/><rect fill="#FFFFFF" height="2" style="stroke:#D5D5D5;stroke-width:0.5;" width="4" x="1932.1918" y="559.8419"/><text fill="#333333" font-family="'Helvetica Neue'" font-size="13" lengthAdjust="spacing" textLength="74.3818" x="1854.81" y="580.9088">Networking</text></g><!--entity uAnalytics--><g class="entity" data-qualified-name="app.utils.uAnalytics" data-source-line="84" id="ent0028"><rect fill="#FFFFFF" height="45.1328" rx="2.5" ry="2.5" style="stroke:#D5D5D5;stroke-width:0.5;" width="99.0332" x="1989.48" y="548.8419"/><rect fill="#FFFFFF" height="10" style="stroke:#D5D5D5;stroke-width:0.5;" width="15" x="2068.5132" y="553.8419"/><rect fill="#FFFFFF" height="2" style="stroke:#D5D5D5;stroke-width:0.5;" width="4" x="2066.5132" y="555.8419"/><rect fill="#FFFFFF" height="2" style="stroke:#D5D5D5;stroke-width:0.5;" width="4" x="2066.5132" y="559.8419"/><text fill="#333333" font-family="'Helvetica Neue'" font-size="13" lengthAdjust="spacing" textLength="59.0332" x="2004.48" y="580.9088">Analytics</text></g><!--entity uUI--><g class="entity" data-qualified-name="app.utils.uUI" data-source-line="85" id="ent0029"><rect fill="#FFFFFF" height="45.1328" rx="2.5" ry="2.5" style="stroke:#D5D5D5;stroke-width:0.5;" width="103.5337" x="2106.23" y="672.9719"/><rect fill="#FFFFFF" height="10" style="stroke:#D5D5D5;stroke-width:0.5;" width="15" x="2189.7637" y="677.9719"/><rect fill="#FFFFFF" height="2" style="stroke:#D5D5D5;stroke-width:0.5;" width="4" x="2187.7637" y="679.9719"/><rect fill="#FFFFFF" height="2" style="stroke:#D5D5D5;stroke-width:0.5;" width="4" x="2187.7637" y="683.9719"/><text fill="#333333" font-family="'Helvetica Neue'" font-size="13" lengthAdjust="spacing" textLength="63.5337" x="2121.23" y="705.0388">UI Shared</text></g><!--entity uConst--><g class="entity" data-qualified-name="app.utils.uConst" data-source-line="86" id="ent0030"><rect fill="#FFFFFF" height="45.1328" rx="2.5" ry="2.5" style="stroke:#D5D5D5;stroke-width:0.5;" width="105.2158" x="2244.39" y="672.9719"/><rect fill="#FFFFFF" height="10" style="stroke:#D5D5D5;stroke-width:0.5;" width="15" x="2329.6058" y="677.9719"/><rect fill="#FFFFFF" height="2" style="stroke:#D5D5D5;stroke-width:0.5;" width="4" x="2327.6058" y="679.9719"/><rect fill="#FFFFFF" height="2" style="stroke:#D5D5D5;stroke-width:0.5;" width="4" x="2327.6058" y="683.9719"/><text fill="#333333" font-family="'Helvetica Neue'" font-size="13" lengthAdjust="spacing" textLength="65.2158" x="2259.39" y="705.0388">Constants</text></g><!--entity uKey--><g class="entity" data-qualified-name="app.utils.uKey" data-source-line="87" id="ent0031"><rect fill="#FFFFFF" height="45.1328" rx="2.5" ry="2.5" style="stroke:#D5D5D5;stroke-width:0.5;" width="121.2563" x="2384.37" y="672.9719"/><rect fill="#FFFFFF" height="10" style="stroke:#D5D5D5;stroke-width:0.5;" width="15" x="2485.6263" y="677.9719"/><rect fill="#FFFFFF" height="2" style="stroke:#D5D5D5;stroke-width:0.5;" width="4" x="2483.6263" y="679.9719"/><rect fill="#FFFFFF" height="2" style="stroke:#D5D5D5;stroke-width:0.5;" width="4" x="2483.6263" y="683.9719"/><text fill="#333333" font-family="'Helvetica Neue'" font-size="13" lengthAdjust="spacing" textLength="81.2563" x="2399.37" y="705.0388">KeychainUtil</text></g><!--entity uMore--><g class="entity" data-qualified-name="app.utils.uMore" data-source-line="88" id="ent0032"><rect fill="#F5F5F5" height="45.1328" rx="2.5" ry="2.5" style="stroke:#D5D5D5;stroke-width:0.5;" width="126.1885" x="2094.91" y="779.1119"/><rect fill="#F5F5F5" height="10" style="stroke:#D5D5D5;stroke-width:0.5;" width="15" x="2201.0985" y="784.1119"/><rect fill="#F5F5F5" height="2" style="stroke:#D5D5D5;stroke-width:0.5;" width="4" x="2199.0985" y="786.1119"/><rect fill="#F5F5F5" height="2" style="stroke:#D5D5D5;stroke-width:0.5;" width="4" x="2199.0985" y="790.1119"/><text fill="#333333" font-family="'Helvetica Neue'" font-size="13" lengthAdjust="spacing" textLength="69.6592" x="2118.1746" y="811.1788">+ 13 more</text></g><!--entity extWidget--><g class="entity" data-qualified-name="extensions.extWidget" data-source-line="95" id="ent0034"><rect fill="#FFFFFF" height="45.1328" rx="2.5" ry="2.5" style="stroke:#D5D5D5;stroke-width:0.5;" width="86.0649" x="2641.97" y="388.7119"/><rect fill="#FFFFFF" height="10" style="stroke:#D5D5D5;stroke-width:0.5;" width="15" x="2708.0349" y="393.7119"/><rect fill="#FFFFFF" height="2" style="stroke:#D5D5D5;stroke-width:0.5;" width="4" x="2706.0349" y="395.7119"/><rect fill="#FFFFFF" height="2" style="stroke:#D5D5D5;stroke-width:0.5;" width="4" x="2706.0349" y="399.7119"/><text fill="#333333" font-family="'Helvetica Neue'" font-size="13" lengthAdjust="spacing" textLength="46.0649" x="2656.97" y="420.7788">Widget</text></g><!--entity extWatch--><g class="entity" data-qualified-name="extensions.extWatch" data-source-line="96" id="ent0035"><rect fill="#FFFFFF" height="45.1328" rx="2.5" ry="2.5" style="stroke:#D5D5D5;stroke-width:0.5;" width="81.3042" x="2763.35" y="388.7119"/><rect fill="#FFFFFF" height="10" style="stroke:#D5D5D5;stroke-width:0.5;" width="15" x="2824.6542" y="393.7119"/><rect fill="#FFFFFF" height="2" style="stroke:#D5D5D5;stroke-width:0.5;" width="4" x="2822.6542" y="395.7119"/><rect fill="#FFFFFF" height="2" style="stroke:#D5D5D5;stroke-width:0.5;" width="4" x="2822.6542" y="399.7119"/><text fill="#333333" font-family="'Helvetica Neue'" font-size="13" lengthAdjust="spacing" textLength="41.3042" x="2778.35" y="420.7788">Watch</text></g><!--entity extIntent--><g class="entity" data-qualified-name="extensions.extIntent" data-source-line="97" id="ent0036"><rect fill="#FFFFFF" height="45.1328" rx="2.5" ry="2.5" style="stroke:#D5D5D5;stroke-width:0.5;" width="78.5049" x="2645.75" y="548.8419"/><rect fill="#FFFFFF" height="10" style="stroke:#D5D5D5;stroke-width:0.5;" width="15" x="2704.2549" y="553.8419"/><rect fill="#FFFFFF" height="2" style="stroke:#D5D5D5;stroke-width:0.5;" width="4" x="2702.2549" y="555.8419"/><rect fill="#FFFFFF" height="2" style="stroke:#D5D5D5;stroke-width:0.5;" width="4" x="2702.2549" y="559.8419"/><text fill="#333333" font-family="'Helvetica Neue'" font-size="13" lengthAdjust="spacing" textLength="38.5049" x="2660.75" y="580.9088">Intent</text></g><g class="entity" data-qualified-name="GMN47" data-source-line="119" id="ent0048"><path d="M2605.74,218.2919 L2605.74,266.7059 L2772.2537,266.7059 L2772.2537,228.2919 L2762.2537,218.2919 L2605.74,218.2919" fill="#FFF3F3" style="stroke:#E8AAAA;stroke-width:0.5;"/><path d="M2762.2537,218.2919 L2762.2537,228.2919 L2772.2537,228.2919 L2762.2537,218.2919" fill="#FFF3F3" style="stroke:#E8AAAA;stroke-width:1;"/><text fill="#8B3A3A" font-family="'Helvetica Neue'" font-size="11" lengthAdjust="spacing" textLength="120.3662" x="2611.74" y="233.5023">Every feature can call</text><text fill="#8B3A3A" font-family="'Helvetica Neue'" font-size="11" lengthAdjust="spacing" textLength="121.8271" x="2611.74" y="246.307">every other feature &#8212;</text><text fill="#8B3A3A" font-family="'Helvetica Neue'" font-size="11" font-weight="bold" lengthAdjust="spacing" textLength="145.5137" x="2611.74" y="259.1117">no visibility boundaries</text></g><g class="entity" data-qualified-name="GMN50" data-source-line="125" id="ent0051"><path d="M2914.97,387.0719 L2914.97,435.4859 L3059.0266,435.4859 L3059.0266,397.0719 L3049.0266,387.0719 L2914.97,387.0719" fill="#FFF3F3" style="stroke:#E8AAAA;stroke-width:0.5;"/><path d="M3049.0266,387.0719 L3049.0266,397.0719 L3059.0266,397.0719 L3049.0266,387.0719" fill="#FFF3F3" style="stroke:#E8AAAA;stroke-width:1;"/><text fill="#8B3A3A" font-family="'Helvetica Neue'" font-size="11" lengthAdjust="spacing" textLength="105.7568" x="2920.97" y="402.2823">Static singletons &#8212;</text><rect fill="#8B3A3A" height="3.5" width="3.5" x="2929.97" y="407.6813"/><text fill="#8B3A3A" font-family="'Helvetica Neue'" font-size="11" lengthAdjust="spacing" textLength="107.0566" x="2936.97" y="415.087">impossible to inject</text><text fill="#8B3A3A" font-family="'Helvetica Neue'" font-size="11" lengthAdjust="spacing" textLength="100.7349" x="2920.97" y="427.8917">fakes for testing**</text></g><g class="entity" data-qualified-name="GMN53" data-source-line="131" id="ent0054"><path d="M2912.16,547.2019 L2912.16,595.6159 L3077.8465,595.6159 L3077.8465,557.2019 L3067.8465,547.2019 L2912.16,547.2019" fill="#FFF3F3" style="stroke:#E8AAAA;stroke-width:0.5;"/><path d="M3067.8465,547.2019 L3067.8465,557.2019 L3077.8465,557.2019 L3067.8465,547.2019" fill="#FFF3F3" style="stroke:#E8AAAA;stroke-width:1;"/><text fill="#8B3A3A" font-family="'Helvetica Neue'" font-size="11" lengthAdjust="spacing" textLength="144.6865" x="2918.16" y="562.4123">Widget, Watch, and Intent</text><text fill="#8B3A3A" font-family="'Helvetica Neue'" font-size="11" lengthAdjust="spacing" textLength="28.3433" x="2918.16" y="575.217">carry</text><text fill="#8B3A3A" font-family="'Helvetica Neue'" font-size="11" font-weight="bold" lengthAdjust="spacing" textLength="90.1216" x="2949.9998" y="575.217">all 18 features</text><text fill="#8B3A3A" font-family="'Helvetica Neue'" font-size="11" lengthAdjust="spacing" textLength="84.0254" x="2918.16" y="588.0217">as dead weight</text></g><!--link flows to coords--><!--link coords to utils--><!--link fHome to cAccount--><g class="link" data-entity-1="ent0004" data-entity-2="ent0016" data-link-type="dependency" data-source-line="106" id="lnk39"><path d="M1319.94,265.5119 C1318.62,265.9519 1317.31,266.3519 1316,266.7119 C1121.1,319.3819 609.09,278.7919 408,296.7119 C340.45,302.7319 318.41,289.9419 257,318.7119 C222.31,334.9619 194.824,362.4442 176.294,383.9742" fill="none" id="fHome-to-cAccount" style="stroke:#AAAAAA;stroke-width:1;stroke-dasharray:7,7;"/><polygon fill="#AAAAAA" points="172.38,388.5219,181.2827,384.3097,175.6416,384.7322,175.2192,379.0911,172.38,388.5219" style="stroke:#AAAAAA;stroke-width:1;"/><text fill="#CC6666" font-family="'Helvetica Neue'" font-size="11" lengthAdjust="spacing" textLength="54.0869" x="409" y="307.9223">direct call</text></g><!--link fVisitors to cDevice--><g class="link" data-entity-1="ent0005" data-entity-2="ent0018" data-link-type="dependency" data-source-line="107" id="lnk40"><path d="M1432.52,262.3219 C1427.03,264.0819 1421.44,265.6119 1416,266.7119 C1236.2,303.1419 773.59,278.9019 591,296.7119 C529.19,302.7419 508.8,291.4319 453,318.7119 C419.32,335.1819 393.0552,362.521 375.3752,383.981" fill="none" id="fVisitors-to-cDevice" style="stroke:#AAAAAA;stroke-width:1;stroke-dasharray:7,7;"/><polygon fill="#AAAAAA" points="371.56,388.6119,380.3699,384.2091,374.7393,384.7528,374.1955,379.1222,371.56,388.6119" style="stroke:#AAAAAA;stroke-width:1;"/><text fill="#CC6666" font-family="'Helvetica Neue'" font-size="11" lengthAdjust="spacing" textLength="54.0869" x="592" y="307.9223">direct call</text></g><!--link fHistory to cAuth--><g class="link" data-entity-1="ent0006" data-entity-2="ent0020" data-link-type="dependency" data-source-line="108" id="lnk41"><path d="M1555.6,262.2019 C1550.09,264.0019 1544.47,265.5819 1539,266.7119 C1372.18,301.2419 942.52,279.8419 773,296.7119 C711.63,302.8219 690.95,290.7219 636,318.7119 C603.67,335.1819 579.259,362.3814 562.889,383.8414" fill="none" id="fHistory-to-cAuth" style="stroke:#AAAAAA;stroke-width:1;stroke-dasharray:7,7;"/><polygon fill="#AAAAAA" points="559.25,388.6119,567.8888,383.8821,562.2825,384.6365,561.5282,379.0301,559.25,388.6119" style="stroke:#AAAAAA;stroke-width:1;"/><text fill="#CC6666" font-family="'Helvetica Neue'" font-size="11" lengthAdjust="spacing" textLength="54.0869" x="774" y="307.9223">direct call</text></g><!--link fAdmin to cPush--><g class="link" data-entity-1="ent0010" data-entity-2="ent0021" data-link-type="dependency" data-source-line="109" id="lnk42"><path d="M1676.71,261.9619 C1671.18,263.8619 1665.51,265.5219 1660,266.7119 C1512.14,298.5919 1130.65,283.1819 980,296.7119 C907.63,303.2119 883.05,286.3419 818,318.7119 C785.69,334.7819 761.6139,362.0499 745.5339,383.6399" fill="none" id="fAdmin-to-cPush" style="stroke:#AAAAAA;stroke-width:1;stroke-dasharray:7,7;"/><polygon fill="#AAAAAA" points="741.95,388.4519,750.5339,383.6232,744.9366,384.4419,744.1179,378.8446,741.95,388.4519" style="stroke:#AAAAAA;stroke-width:1;"/><text fill="#CC6666" font-family="'Helvetica Neue'" font-size="11" lengthAdjust="spacing" textLength="54.0869" x="981" y="307.9223">direct call</text></g><!--link fOnboarding to uNet--><g class="link" data-entity-1="ent0008" data-entity-2="ent0027" data-link-type="dependency" data-source-line="110" id="lnk43"><path d="M2003.32,265.4819 C1987,279.0819 1967.75,297.8819 1956,318.7119 C1912.66,395.5219 1901.4871,496.725 1898.4571,542.405" fill="none" id="fOnboarding-to-uNet" style="stroke:#AAAAAA;stroke-width:1;stroke-dasharray:7,7;"/><polygon fill="#AAAAAA" points="1898.06,548.3919,1902.6469,539.6764,1898.3909,543.4028,1894.6644,539.1469,1898.06,548.3919" style="stroke:#AAAAAA;stroke-width:1;"/><text fill="#CC6666" font-family="'Helvetica Neue'" font-size="11" lengthAdjust="spacing" textLength="54.0869" x="1957" y="415.4923">direct call</text></g><!--link fVideo to uAnalytics--><g class="link" data-entity-1="ent0009" data-entity-2="ent0028" data-link-type="dependency" data-source-line="111" id="lnk44"><path d="M2155.11,265.5119 C2137.11,278.8619 2116.08,297.4119 2103,318.7119 C2056.53,394.4019 2044.13,496.6688 2040.68,542.5388" fill="none" id="fVideo-to-uAnalytics" style="stroke:#AAAAAA;stroke-width:1;stroke-dasharray:7,7;"/><polygon fill="#AAAAAA" points="2040.23,548.5219,2044.8937,539.8472,2040.605,543.536,2036.9163,539.2472,2040.23,548.5219" style="stroke:#AAAAAA;stroke-width:1;"/><text fill="#CC6666" font-family="'Helvetica Neue'" font-size="11" lengthAdjust="spacing" textLength="54.0869" x="2104" y="415.4923">direct call</text></g><!--reverse link app to extensions--><g class="link" data-entity-1="ent0002" data-entity-2="ent0033" data-link-type="dependency" data-source-line="114" id="lnk46"><path d="M2581.6635,261.9827 C2581.9058,262.2949 2578.884,258.2969 2579.1356,258.6067 C2579.6389,259.2263 2580.1607,259.8396 2580.7005,260.4409 C2582.8594,262.8463 2585.305,265.0594 2588,266.7119 C2693.32,331.2319 2772.95,232.0919 2861,318.7119 C2868.2925,325.8844 2873.1463,335.0719 2876.32,344.8483 C2876.5184,345.4593 2876.7102,346.0726 2876.8956,346.6879" fill="none" id="app-backto-extensions" style="stroke:#AAAAAA;stroke-width:1;"/><polygon fill="#AAAAAA" points="2578.0347,257.2045,2580.2925,266.791,2581.0587,261.1863,2586.6634,261.9526,2578.0347,257.2045" style="stroke:#AAAAAA;stroke-width:1;"/><text fill="#CC6666" font-family="'Helvetica Neue'" font-size="11" lengthAdjust="spacing" textLength="122.665" x="2852" y="307.9223">imports entire module</text></g><!--link flows to GMN47--><g class="link" data-entity-1="ent0003" data-entity-2="ent0048" data-link-type="association" data-source-line="119" id="lnk49"><path d="M1275.9734,181.821 C1275.962,181.5389 1275.9511,181.2564 1275.9405,180.9736 C1275.8984,179.8421 1275.8625,178.7045 1275.8335,177.5615 C1275.7176,172.9895 1275.7108,168.3319 1275.8438,163.6444 C1276.9075,126.1444 1286.915,86.7319 1321.5,73.9419 C1353.99,61.9219 2536.01,61.9219 2568.5,73.9419 C2631.93,97.4019 2667.18,177.3119 2681.44,218.1119" fill="none" id="flows-GMN47" style="stroke:#AAAAAA;stroke-width:1;stroke-dasharray:7,7;"/></g><!--link coords to GMN50--><g class="link" data-entity-1="ent0015" data-entity-2="ent0051" data-link-type="association" data-source-line="125" id="lnk52"><path d="M1236.1493,392.5242 C1236.2187,392.3785 1236.2885,392.2322 1236.3588,392.0852 C1236.4994,391.7914 1236.6417,391.495 1236.7858,391.1961 C1237.0739,390.5984 1237.3689,389.9907 1237.6709,389.3738 C1238.2749,388.1398 1238.9067,386.8683 1239.566,385.5633 C1240.8847,382.9532 1242.3138,380.2089 1243.8521,377.362 C1246.9285,371.668 1250.4416,365.5634 1254.3813,359.3006 C1270.14,334.2494 1292.725,306.6669 1321.5,292.7119 C1360.42,273.8419 2838.92,275.2819 2878.5,292.7119 C2921.91,311.8319 2955.51,357.8419 2973.19,386.6019" fill="none" id="coords-GMN50" style="stroke:#AAAAAA;stroke-width:1;stroke-dasharray:7,7;"/></g><!--link extensions to GMN53--><g class="link" data-entity-1="ent0033" data-entity-2="ent0054" data-link-type="association" data-source-line="131" id="lnk55"><path d="M2888.0804,453.2887 C2888.2156,453.7077 2888.353,454.1266 2888.4925,454.5455 C2890.725,461.2469 2893.5175,467.9144 2897,473.8419 C2914.06,502.8819 2942.05,529.2319 2963.77,547.0419" fill="none" id="extensions-GMN53" style="stroke:#AAAAAA;stroke-width:1;stroke-dasharray:7,7;"/></g><g class="legend" data-source-line="138"><rect fill="none" height="22.8047" rx="7.5" ry="7.5" style="stroke:#000000;stroke-width:1;" width="555.6172" x="1257.6147" y="906.2419"/><text fill="#999999" font-family="'Helvetica Neue'" font-size="11" lengthAdjust="spacing" textLength="545.6172" x="1262.6147" y="921.4523">Full module recompile on any change &#183; No compilation firewall &#183; AI agents must load entire context</text></g><?plantuml-src rLZDRXit4BxlKmnieB7bE8aY9503HO0YHuXHs37YkZsqFL2xbCHuTobmkRRL8a0UeOVqMNhle-H9-WsvgvLsPLk7j44e7KJo6yvm_ga7zFclFx_TR_20rDjp6keaoLDb5pIOp-dpnqyqp8sHgQM12MVAoj3cHjBUYKvrhEni7tH7Ibffw9r8Cihi8fOlI6I4NHjBYcIcfYalp7MMgN4iGV5jQoh8BbKw5qOaz4T0kE54vB4TwTIUYaHIDNRUoFXAMXKAEfMvt5a7dwlVLy7jplhsKCVQLDkx7JU06OlmScfqdaOr2EsEt00ccub8NwjqIlKn4N4c0q0CJ2dIAKp4bo1wTSknkwC1Vpn6cqYQEbjWZfxnns4so5wx0D4xpyQaSXtLTRldy2QfxM8krzNKRc_OhbZjVky6C1_uVdFSHqpllzqp_jnzkw4RMz_EISrnKCFCOw7IKhnG9tETSc3T9s1fqo-bViS-rLPkmRapwjpD-NLtW74tv-whpg1JOMf-NvdM2IQCqTU5P9jESoSE1lTpNNh3lLp1rohELRq9W9G1-RBTXOLmwilTze0__TwuloaJzXwF-xt7JDV_DLsbVrhITztebmbJXIwhTfuzEQ29YcL62jaHH2uK4ntbiImE33XJVlg8Bvt0SpWZnyWbLkcKpWhlzll_zJS8ocZQ2Si2yUWcr96S6_r-XxExGBdezOfhM66cqlRxyA4d_84zrpBEJgjraI7sHx6-pbejscjtzzqf4rueVRxmWYfITjxeH7eS_whl_gGoPRN9FAASDSvG6PONnJ5-KiSCmX3nO3sccDGnRzEn5YR2XJsicZVbYgIceOZZ9TWjDRX6YKeBdloplZ-4KyXIgcBIE2DD8Mme4ymAHPHBTUY97iF_Q6XaXBb2NIXEna93QqG7r8LxelQJXvtmxofzVcXO-4XOWH3Mh1F1bd26VkuD7V9wnXvZuT1XuVzMfvdpcbliNvXYvL1_s2qcAboW0I_Mw_0ZUQL2sK3xvLlSg86-pQDoEskAZSKwy2pFca1Ut6IHzfDLauJtckJ2AkGWXQJp7VpHogascB1TddOFl65oGEw8mDStyBeC6SWxIuvv7JBI9X4MHRg0Z98617tHVBdFaphWLDfhRIxBUCanRtgwY1TmdUAKvRIEkpYcyvc0JtlSnV66i88Jbk6IksaTyuDSX3FaO5QWXs5beqKwgnR96nRvi9BKbxga7rs-pFwdR7vBYb_pb8PihPQxaLpQVyr7LhJmiug0By5-LaC86ywM09wixnzNQGu0FrjJt96SonH9AsHFtfDNqYnGMD7i8WlCOndjqnTLZ2zAXx_CL0Iclw6nJW-B11OKUQoswOA81HuQF7eEdLWitvwTIKB9n2iesGzS4QD7Z_hB14OlgEVQXXVeEPzZz2F5Pg4GnQFts6trWsLfyxG-Fsr9MgIdWYlopvPqhY1vAav6Mr9LDT6HSXXlVKMkcOve6TdRaKBhLP8Y1QyobYeV2LOy-32V7_PTvz8usTF10L4PJTMNLJmALpppnYGkijQrPbyfYeF0jVH6JMUMzCHtKeYhrtnpcaZXtksXI9ssiE5KGXeUQPRRw4onqsgbcgxWOsEk5WiQyzj0-4eH8F3Suw7EhuW7VfxL2lhoLDQf_mk0h4RR-nws2_X5Ueamdg23jpAp86jo6MjhTS9iAkk1qYUNX-Hoo4CI83ekkw8G3ua5cEAoX6Q-k27VW3YnH594T2rP-XLcIxEEjEQ_DBvYFjx2uB6SikY5SaBSMt9Fi_eAQPUl4FyQwezogCCxCtS6oBdS0YBBYtH1g70fMln__gPJJNxFFpOc285hLYIs1iU4Tm2g9ILvPYdMq6CH926tf3UsVBsmR5x4u5y0?></g></svg>