<svg xmlns="http://www.w3.org/2000/svg" viewBox="0 0 1800 1200" width="1800" height="1200">
  <defs>
    <filter id="shadow" x="-4%" y="-4%" width="108%" height="112%">
      <feDropShadow dx="0" dy="4" stdDeviation="8" flood-color="rgba(0,0,0,0.08)"/>
    </filter>
    <filter id="shadowSmall" x="-4%" y="-4%" width="108%" height="116%">
      <feDropShadow dx="0" dy="2" stdDeviation="4" flood-color="rgba(0,0,0,0.06)"/>
    </filter>
    <marker id="arrowRed" viewBox="0 0 10 7" refX="10" refY="3.5" markerWidth="16" markerHeight="12" orient="auto-start-reverse">
      <polygon points="0 0, 10 3.5, 0 7" fill="#FF6B6B"/>
    </marker>
    <marker id="arrowGray" viewBox="0 0 10 7" refX="10" refY="3.5" markerWidth="16" markerHeight="12" orient="auto-start-reverse">
      <polygon points="0 0, 10 3.5, 0 7" fill="#C7C7CC"/>
    </marker>
  </defs>

  <!-- Background -->
  <rect width="1800" height="1200" fill="#FFFFFF"/>

  <!-- Title -->
  <text x="80" y="84" font-family="-apple-system, 'SF Pro Display', system-ui, sans-serif" font-size="40" font-weight="700" fill="#1D1D1F">Before</text>
  <text x="216" y="84" font-family="-apple-system, 'SF Pro Display', system-ui, sans-serif" font-size="40" font-weight="400" fill="#8E8E93"> — Monolithic Architecture</text>

  <!-- Badge top-right -->
  <rect x="1156" y="36" width="600" height="64" rx="32" ry="32" fill="#FFF3F0" stroke="#FFD6CC" stroke-width="2" filter="url(#shadowSmall)"/>
  <text x="1196" y="78" font-family="-apple-system, 'SF Pro Display', system-ui, sans-serif" font-size="22" font-weight="600" fill="#E8453C">350+ files · 1 module · Full recompile</text>
  <circle cx="1724" cy="68" r="12" fill="#FF3B30"/>
  <text x="1717" y="75" font-family="-apple-system, 'SF Pro Display', system-ui, sans-serif" font-size="18" font-weight="700" fill="#FFFFFF">!</text>

  <!-- Main monolith container -->
  <rect x="80" y="136" width="1240" height="960" rx="32" ry="32" fill="#FAFAFA" stroke="#E5E5EA" stroke-width="3" filter="url(#shadow)"/>
  <rect x="80" y="136" width="1240" height="88" rx="32" ry="32" fill="#F2F2F7"/>
  <rect x="80" y="192" width="1240" height="32" fill="#F2F2F7"/>
  <text x="120" y="194" font-family="-apple-system, 'SF Pro Display', system-ui, sans-serif" font-size="28" font-weight="600" fill="#1D1D1F">community.xcodeproj</text>
  <text x="620" y="194" font-family="-apple-system, 'SF Pro Display', system-ui, sans-serif" font-size="22" fill="#8E8E93">Single Target · Everything Coupled</text>

  <!-- Tangled spaghetti lines (drawn first, behind boxes) -->
  <g opacity="0.5">
    <!-- Horizontal tangles -->
    <path d="M240,400 C400,320 560,520 720,380" stroke="#FF6B6B" stroke-width="2.4" fill="none" stroke-dasharray="6,4"/>
    <path d="M360,480 C520,600 680,360 900,520" stroke="#FF9500" stroke-width="2.4" fill="none"/>
    <path d="M200,560 C400,700 700,400 1000,600" stroke="#FF6B6B" stroke-width="2" fill="none" stroke-dasharray="8,4"/>
    <path d="M400,360 C600,500 360,640 800,440" stroke="#FF9500" stroke-width="2" fill="none"/>
    <path d="M760,360 C840,560 560,600 1040,480" stroke="#FF6B6B" stroke-width="2.4" fill="none"/>
    <path d="M280,640 C500,500 700,760 1000,560" stroke="#FF9500" stroke-width="2" fill="none" stroke-dasharray="6,6"/>
    <path d="M920,380 C1000,600 700,700 1160,500" stroke="#FF6B6B" stroke-width="2" fill="none"/>
    <path d="M200,760 C400,600 800,840 1120,700" stroke="#FF9500" stroke-width="2.4" fill="none"/>
    <path d="M400,700 C640,560 360,840 900,740" stroke="#FF6B6B" stroke-width="2" fill="none" stroke-dasharray="8,6"/>
    <path d="M600,400 C700,700 900,500 800,800" stroke="#FF9500" stroke-width="2" fill="none"/>

    <!-- Vertical tangles -->
    <path d="M300,340 C240,560 500,600 360,840" stroke="#FF6B6B" stroke-width="2" fill="none"/>
    <path d="M700,320 C800,560 600,700 760,900" stroke="#FF9500" stroke-width="2.4" fill="none" stroke-dasharray="6,4"/>
    <path d="M1000,360 C920,600 1080,700 960,880" stroke="#FF6B6B" stroke-width="2" fill="none"/>
    <path d="M500,400 C440,640 600,760 520,940" stroke="#FF9500" stroke-width="2" fill="none" stroke-dasharray="8,4"/>

    <!-- Cross tangles -->
    <path d="M200,400 C600,700 900,360 1200,800" stroke="#FF6B6B" stroke-width="2" fill="none"/>
    <path d="M1160,340 C800,600 400,500 240,900" stroke="#FF9500" stroke-width="2.4" fill="none" stroke-dasharray="6,6"/>
    <path d="M600,320 C300,700 1000,800 500,980" stroke="#FF6B6B" stroke-width="2" fill="none"/>
    <path d="M1100,400 C700,640 1000,800 400,760" stroke="#FF9500" stroke-width="2" fill="none" stroke-dasharray="10,4"/>

    <!-- Dense center coupling -->
    <path d="M500,500 C600,400 700,600 800,500" stroke="#FF3B30" stroke-width="3" fill="none"/>
    <path d="M560,560 C700,460 640,700 840,560" stroke="#FF3B30" stroke-width="2.4" fill="none"/>
    <path d="M400,600 C600,500 560,760 800,620" stroke="#FF3B30" stroke-width="2" fill="none"/>
    <path d="M640,440 C560,640 800,560 700,760" stroke="#FF3B30" stroke-width="2.6" fill="none"/>
  </g>

  <!-- Internal boxes — User Flows cluster -->
  <text x="120" y="280" font-family="-apple-system, 'SF Pro Display', system-ui, sans-serif" font-size="20" font-weight="600" fill="#8E8E93" letter-spacing="2" text-transform="uppercase">USER FLOWS</text>

  <rect x="120" y="304" width="200" height="72" rx="16" ry="16" fill="#FFF8F0" stroke="#FFD6A8" stroke-width="2" filter="url(#shadowSmall)"/>
  <text x="220" y="348" text-anchor="middle" font-family="-apple-system, 'SF Pro Display', system-ui, sans-serif" font-size="22" font-weight="500" fill="#CC7700">Home</text>

  <rect x="340" y="296" width="200" height="72" rx="16" ry="16" fill="#FFF8F0" stroke="#FFD6A8" stroke-width="2" filter="url(#shadowSmall)"/>
  <text x="440" y="340" text-anchor="middle" font-family="-apple-system, 'SF Pro Display', system-ui, sans-serif" font-size="22" font-weight="500" fill="#CC7700">Visitors</text>

  <rect x="560" y="310" width="200" height="72" rx="16" ry="16" fill="#FFF8F0" stroke="#FFD6A8" stroke-width="2" filter="url(#shadowSmall)"/>
  <text x="660" y="354" text-anchor="middle" font-family="-apple-system, 'SF Pro Display', system-ui, sans-serif" font-size="22" font-weight="500" fill="#CC7700">History</text>

  <rect x="780" y="296" width="200" height="72" rx="16" ry="16" fill="#FFF8F0" stroke="#FFD6A8" stroke-width="2" filter="url(#shadowSmall)"/>
  <text x="880" y="340" text-anchor="middle" font-family="-apple-system, 'SF Pro Display', system-ui, sans-serif" font-size="22" font-weight="500" fill="#CC7700">Account</text>

  <rect x="1000" y="304" width="200" height="72" rx="16" ry="16" fill="#FFF8F0" stroke="#FFD6A8" stroke-width="2" filter="url(#shadowSmall)"/>
  <text x="1100" y="348" text-anchor="middle" font-family="-apple-system, 'SF Pro Display', system-ui, sans-serif" font-size="22" font-weight="500" fill="#CC7700">Onboarding</text>

  <rect x="160" y="390" width="192" height="72" rx="16" ry="16" fill="#FFF8F0" stroke="#FFD6A8" stroke-width="2" filter="url(#shadowSmall)"/>
  <text x="256" y="434" text-anchor="middle" font-family="-apple-system, 'SF Pro Display', system-ui, sans-serif" font-size="22" font-weight="500" fill="#CC7700">Video Call</text>

  <rect x="372" y="400" width="192" height="72" rx="16" ry="16" fill="#FFF8F0" stroke="#FFD6A8" stroke-width="2" filter="url(#shadowSmall)"/>
  <text x="468" y="444" text-anchor="middle" font-family="-apple-system, 'SF Pro Display', system-ui, sans-serif" font-size="22" font-weight="500" fill="#CC7700">Admin</text>

  <rect x="584" y="390" width="192" height="72" rx="16" ry="16" fill="#FFF8F0" stroke="#FFD6A8" stroke-width="2" filter="url(#shadowSmall)"/>
  <text x="680" y="434" text-anchor="middle" font-family="-apple-system, 'SF Pro Display', system-ui, sans-serif" font-size="22" font-weight="500" fill="#CC7700">Content</text>

  <!-- Ellipsis for more flows -->
  <rect x="796" y="396" width="160" height="64" rx="16" ry="16" fill="#FFF0E0" stroke="#FFD6A8" stroke-width="2" stroke-dasharray="8,4"/>
  <text x="876" y="436" text-anchor="middle" font-family="-apple-system, 'SF Pro Display', system-ui, sans-serif" font-size="22" font-weight="500" fill="#CC7700">+10 more</text>

  <!-- Data Coordinators cluster -->
  <text x="120" y="530" font-family="-apple-system, 'SF Pro Display', system-ui, sans-serif" font-size="20" font-weight="600" fill="#8E8E93" letter-spacing="2">DATA COORDINATORS</text>

  <rect x="120" y="556" width="240" height="68" rx="16" ry="16" fill="#FFF0F0" stroke="#FFB3B3" stroke-width="2" filter="url(#shadowSmall)"/>
  <text x="240" y="598" text-anchor="middle" font-family="-apple-system, 'SF Pro Display', system-ui, sans-serif" font-size="20" font-weight="500" fill="#D63030">AccountCoordinator</text>

  <rect x="380" y="550" width="240" height="68" rx="16" ry="16" fill="#FFF0F0" stroke="#FFB3B3" stroke-width="2" filter="url(#shadowSmall)"/>
  <text x="500" y="592" text-anchor="middle" font-family="-apple-system, 'SF Pro Display', system-ui, sans-serif" font-size="20" font-weight="500" fill="#D63030">VisitorCoordinator</text>

  <rect x="640" y="560" width="240" height="68" rx="16" ry="16" fill="#FFF0F0" stroke="#FFB3B3" stroke-width="2" filter="url(#shadowSmall)"/>
  <text x="760" y="602" text-anchor="middle" font-family="-apple-system, 'SF Pro Display', system-ui, sans-serif" font-size="20" font-weight="500" fill="#D63030">DeviceCoordinator</text>

  <rect x="900" y="552" width="240" height="68" rx="16" ry="16" fill="#FFF0F0" stroke="#FFB3B3" stroke-width="2" filter="url(#shadowSmall)"/>
  <text x="1020" y="594" text-anchor="middle" font-family="-apple-system, 'SF Pro Display', system-ui, sans-serif" font-size="20" font-weight="500" fill="#D63030">HistoryCoordinator</text>

  <rect x="200" y="636" width="240" height="68" rx="16" ry="16" fill="#FFF0F0" stroke="#FFB3B3" stroke-width="2" filter="url(#shadowSmall)"/>
  <text x="320" y="678" text-anchor="middle" font-family="-apple-system, 'SF Pro Display', system-ui, sans-serif" font-size="20" font-weight="500" fill="#D63030">AuthCoordinator</text>

  <rect x="460" y="644" width="240" height="68" rx="16" ry="16" fill="#FFF0F0" stroke="#FFB3B3" stroke-width="2" filter="url(#shadowSmall)"/>
  <text x="580" y="686" text-anchor="middle" font-family="-apple-system, 'SF Pro Display', system-ui, sans-serif" font-size="20" font-weight="500" fill="#D63030">PushCoordinator</text>

  <rect x="720" y="636" width="160" height="68" rx="16" ry="16" fill="#FFE8E8" stroke="#FFB3B3" stroke-width="2" stroke-dasharray="8,4"/>
  <text x="800" y="678" text-anchor="middle" font-family="-apple-system, 'SF Pro Display', system-ui, sans-serif" font-size="20" font-weight="500" fill="#D63030">+10 more</text>

  <!-- Static singleton warning -->
  <rect x="920" y="640" width="340" height="56" rx="28" ry="28" fill="#FFF0F0" stroke="#FF3B30" stroke-width="2"/>
  <text x="950" y="676" font-family="-apple-system, 'SF Pro Display', system-ui, sans-serif" font-size="20" font-weight="600" fill="#FF3B30">⚠ All static singletons</text>

  <!-- Utilities cluster -->
  <text x="120" y="770" font-family="-apple-system, 'SF Pro Display', system-ui, sans-serif" font-size="20" font-weight="600" fill="#8E8E93" letter-spacing="2">UTILITIES &amp; CATEGORIES</text>

  <rect x="120" y="796" width="190" height="64" rx="16" ry="16" fill="#F0F0F5" stroke="#D1D1D6" stroke-width="2" filter="url(#shadowSmall)"/>
  <text x="214" y="836" text-anchor="middle" font-family="-apple-system, 'SF Pro Display', system-ui, sans-serif" font-size="20" font-weight="500" fill="#636366">Extensions</text>

  <rect x="330" y="790" width="190" height="64" rx="16" ry="16" fill="#F0F0F5" stroke="#D1D1D6" stroke-width="2" filter="url(#shadowSmall)"/>
  <text x="424" y="830" text-anchor="middle" font-family="-apple-system, 'SF Pro Display', system-ui, sans-serif" font-size="20" font-weight="500" fill="#636366">Formatters</text>

  <rect x="540" y="800" width="190" height="64" rx="16" ry="16" fill="#F0F0F5" stroke="#D1D1D6" stroke-width="2" filter="url(#shadowSmall)"/>
  <text x="634" y="840" text-anchor="middle" font-family="-apple-system, 'SF Pro Display', system-ui, sans-serif" font-size="20" font-weight="500" fill="#636366">Helpers</text>

  <rect x="750" y="792" width="190" height="64" rx="16" ry="16" fill="#F0F0F5" stroke="#D1D1D6" stroke-width="2" filter="url(#shadowSmall)"/>
  <text x="844" y="832" text-anchor="middle" font-family="-apple-system, 'SF Pro Display', system-ui, sans-serif" font-size="20" font-weight="500" fill="#636366">Networking</text>

  <rect x="960" y="800" width="190" height="64" rx="16" ry="16" fill="#F0F0F5" stroke="#D1D1D6" stroke-width="2" filter="url(#shadowSmall)"/>
  <text x="1054" y="840" text-anchor="middle" font-family="-apple-system, 'SF Pro Display', system-ui, sans-serif" font-size="20" font-weight="500" fill="#636366">Analytics</text>

  <rect x="200" y="872" width="190" height="64" rx="16" ry="16" fill="#F0F0F5" stroke="#D1D1D6" stroke-width="2" filter="url(#shadowSmall)"/>
  <text x="294" y="912" text-anchor="middle" font-family="-apple-system, 'SF Pro Display', system-ui, sans-serif" font-size="20" font-weight="500" fill="#636366">UI Shared</text>

  <rect x="410" y="880" width="190" height="64" rx="16" ry="16" fill="#F0F0F5" stroke="#D1D1D6" stroke-width="2" filter="url(#shadowSmall)"/>
  <text x="504" y="920" text-anchor="middle" font-family="-apple-system, 'SF Pro Display', system-ui, sans-serif" font-size="20" font-weight="500" fill="#636366">Constants</text>

  <rect x="620" y="872" width="190" height="64" rx="16" ry="16" fill="#F0F0F5" stroke="#D1D1D6" stroke-width="2" filter="url(#shadowSmall)"/>
  <text x="714" y="912" text-anchor="middle" font-family="-apple-system, 'SF Pro Display', system-ui, sans-serif" font-size="20" font-weight="500" fill="#636366">KeychainUtil</text>

  <rect x="830" y="880" width="160" height="64" rx="16" ry="16" fill="#EAEAEF" stroke="#D1D1D6" stroke-width="2" stroke-dasharray="8,4"/>
  <text x="910" y="920" text-anchor="middle" font-family="-apple-system, 'SF Pro Display', system-ui, sans-serif" font-size="20" font-weight="500" fill="#636366">+13 more</text>

  <!-- File count label bottom -->
  <rect x="120" y="980" width="1160" height="80" rx="20" ry="20" fill="#FFF8F0" stroke="#FFD6A8" stroke-width="2"/>
  <text x="700" y="1030" text-anchor="middle" font-family="-apple-system, 'SF Pro Display', system-ui, sans-serif" font-size="24" font-weight="600" fill="#CC7700">350+ Swift files in a single compilation unit — any change triggers full rebuild</text>

  <!-- Extension targets (outside main container) -->
  <text x="1400" y="180" font-family="-apple-system, 'SF Pro Display', system-ui, sans-serif" font-size="20" font-weight="600" fill="#8E8E93" letter-spacing="2">EXTENSIONS</text>

  <!-- Widget Extension -->
  <rect x="1390" y="210" width="340" height="112" rx="24" ry="24" fill="#FFFFFF" stroke="#E5E5EA" stroke-width="2" filter="url(#shadow)"/>
  <text x="1560" y="256" text-anchor="middle" font-family="-apple-system, 'SF Pro Display', system-ui, sans-serif" font-size="26" font-weight="600" fill="#1D1D1F">Widget</text>
  <text x="1560" y="296" text-anchor="middle" font-family="-apple-system, 'SF Pro Display', system-ui, sans-serif" font-size="20" fill="#FF3B30" font-weight="500">imports entire app</text>

  <!-- Watch Extension -->
  <rect x="1390" y="350" width="340" height="112" rx="24" ry="24" fill="#FFFFFF" stroke="#E5E5EA" stroke-width="2" filter="url(#shadow)"/>
  <text x="1560" y="396" text-anchor="middle" font-family="-apple-system, 'SF Pro Display', system-ui, sans-serif" font-size="26" font-weight="600" fill="#1D1D1F">Watch</text>
  <text x="1560" y="436" text-anchor="middle" font-family="-apple-system, 'SF Pro Display', system-ui, sans-serif" font-size="20" fill="#FF3B30" font-weight="500">imports entire app</text>

  <!-- Intent Extension -->
  <rect x="1390" y="490" width="340" height="112" rx="24" ry="24" fill="#FFFFFF" stroke="#E5E5EA" stroke-width="2" filter="url(#shadow)"/>
  <text x="1560" y="536" text-anchor="middle" font-family="-apple-system, 'SF Pro Display', system-ui, sans-serif" font-size="26" font-weight="600" fill="#1D1D1F">Intent</text>
  <text x="1560" y="576" text-anchor="middle" font-family="-apple-system, 'SF Pro Display', system-ui, sans-serif" font-size="20" fill="#FF3B30" font-weight="500">imports entire app</text>

  <!-- Fat arrows from extensions to monolith -->
  <line x1="1390" y1="266" x2="1330" y2="400" stroke="#FF3B30" stroke-width="4" marker-end="url(#arrowRed)" opacity="0.7"/>
  <line x1="1390" y1="406" x2="1330" y2="560" stroke="#FF3B30" stroke-width="4" marker-end="url(#arrowRed)" opacity="0.7"/>
  <line x1="1390" y1="546" x2="1330" y2="700" stroke="#FF3B30" stroke-width="4" marker-end="url(#arrowRed)" opacity="0.7"/>

  <!-- Problem callouts on right side -->
  <text x="1400" y="680" font-family="-apple-system, 'SF Pro Display', system-ui, sans-serif" font-size="20" font-weight="600" fill="#8E8E93" letter-spacing="2">PROBLEMS</text>

  <rect x="1390" y="710" width="370" height="60" rx="16" ry="16" fill="#FFF0F0" stroke="#FFCCCC" stroke-width="2"/>
  <text x="1406" y="748" font-family="-apple-system, 'SF Pro Display', system-ui, sans-serif" font-size="22" fill="#D63030">No dependency boundaries</text>

  <rect x="1390" y="786" width="370" height="60" rx="16" ry="16" fill="#FFF0F0" stroke="#FFCCCC" stroke-width="2"/>
  <text x="1406" y="824" font-family="-apple-system, 'SF Pro Display', system-ui, sans-serif" font-size="22" fill="#D63030">Singleton shared state</text>

  <rect x="1390" y="862" width="370" height="60" rx="16" ry="16" fill="#FFF0F0" stroke="#FFCCCC" stroke-width="2"/>
  <text x="1406" y="900" font-family="-apple-system, 'SF Pro Display', system-ui, sans-serif" font-size="22" fill="#D63030">Full recompile on change</text>

  <rect x="1390" y="938" width="370" height="60" rx="16" ry="16" fill="#FFF0F0" stroke="#FFCCCC" stroke-width="2"/>
  <text x="1406" y="976" font-family="-apple-system, 'SF Pro Display', system-ui, sans-serif" font-size="22" fill="#D63030">Untestable in isolation</text>

  <rect x="1390" y="1014" width="370" height="60" rx="16" ry="16" fill="#FFF0F0" stroke="#FFCCCC" stroke-width="2"/>
  <text x="1406" y="1052" font-family="-apple-system, 'SF Pro Display', system-ui, sans-serif" font-size="22" fill="#D63030">Merge conflicts frequent</text>

  <!-- Bottom caption -->
  <text x="900" y="1160" text-anchor="middle" font-family="-apple-system, 'SF Pro Display', system-ui, sans-serif" font-size="22" fill="#8E8E93">Every file can reference every other file — no compilation firewall, no isolation, no parallel builds</text>
</svg>