<svg xmlns="http://www.w3.org/2000/svg" viewBox="0 0 1800 1400" width="1800" height="1400">
  <defs>
    <filter id="shadow" x="-4%" y="-4%" width="108%" height="112%">
      <feDropShadow dx="0" dy="4" stdDeviation="8" flood-color="rgba(0,0,0,0.08)"/>
    </filter>
    <filter id="shadowSmall" x="-6%" y="-8%" width="112%" height="120%">
      <feDropShadow dx="0" dy="2" stdDeviation="4" flood-color="rgba(0,0,0,0.06)"/>
    </filter>
    <marker id="arrowDown" viewBox="0 0 10 7" refX="5" refY="7" markerWidth="16" markerHeight="12" orient="auto">
      <polygon points="0 0, 10 0, 5 7" fill="#C7C7CC"/>
    </marker>
    <marker id="arrowDownBlue" viewBox="0 0 10 7" refX="5" refY="7" markerWidth="16" markerHeight="12" orient="auto">
      <polygon points="0 0, 10 0, 5 7" fill="#007AFF"/>
    </marker>
    <linearGradient id="layerFade" x1="0" y1="0" x2="0" y2="1">
      <stop offset="0%" stop-color="#FFFFFF" stop-opacity="0"/>
      <stop offset="100%" stop-color="#F2F2F7" stop-opacity="0.3"/>
    </linearGradient>
  </defs>

  <!-- Background -->
  <rect width="1800" height="1400" fill="#FFFFFF"/>

  <!-- Title -->
  <text x="80" y="76" font-family="-apple-system, 'SF Pro Display', system-ui, sans-serif" font-size="40" font-weight="700" fill="#1D1D1F">After</text>
  <text x="188" y="76" font-family="-apple-system, 'SF Pro Display', system-ui, sans-serif" font-size="40" font-weight="400" fill="#8E8E93"> — Feature-First Modular Architecture</text>

  <!-- Badge top-right -->
  <rect x="1100" y="28" width="640" height="64" rx="32" ry="32" fill="#F0FFF4" stroke="#A3E8B8" stroke-width="2" filter="url(#shadowSmall)"/>
  <text x="1140" y="70" font-family="-apple-system, 'SF Pro Display', system-ui, sans-serif" font-size="22" font-weight="600" fill="#248A3D">18+ packages · Isolated builds · AI-ready</text>
  <circle cx="1708" cy="60" r="12" fill="#34C759"/>
  <path d="M1700,60 L1706,66 L1716,54" stroke="#FFFFFF" stroke-width="3" fill="none" stroke-linecap="round" stroke-linejoin="round"/>

  <!-- ==================== LAYER 1: APP SHELL ==================== -->
  <rect x="60" y="116" width="1680" height="180" rx="28" ry="28" fill="#F9F9FB" stroke="#E5E5EA" stroke-width="2"/>

  <!-- Layer label -->
  <text x="96" y="156" font-family="-apple-system, 'SF Pro Display', system-ui, sans-serif" font-size="20" font-weight="600" fill="#8E8E93" letter-spacing="2.4">APP SHELL</text>

  <!-- Main app target -->
  <rect x="96" y="176" width="440" height="92" rx="20" ry="20" fill="#FFFFFF" stroke="#E5E5EA" stroke-width="2" filter="url(#shadowSmall)"/>
  <rect x="112" y="192" width="16" height="16" rx="4" ry="4" fill="#007AFF"/>
  <text x="144" y="212" font-family="-apple-system, 'SF Pro Display', system-ui, sans-serif" font-size="26" font-weight="600" fill="#1D1D1F">community.xcodeproj</text>
  <text x="144" y="248" font-family="-apple-system, 'SF Pro Display', system-ui, sans-serif" font-size="20" fill="#8E8E93">Thin orchestration shell</text>

  <!-- Extension targets -->
  <rect x="760" y="176" width="260" height="92" rx="20" ry="20" fill="#FFFFFF" stroke="#E5E5EA" stroke-width="2" filter="url(#shadowSmall)"/>
  <rect x="776" y="192" width="16" height="16" rx="4" ry="4" fill="#8E8E93"/>
  <text x="808" y="212" font-family="-apple-system, 'SF Pro Display', system-ui, sans-serif" font-size="24" font-weight="600" fill="#1D1D1F">Widget</text>
  <text x="808" y="244" font-family="-apple-system, 'SF Pro Display', system-ui, sans-serif" font-size="18" fill="#34C759" font-weight="500">FeatureHome only</text>

  <rect x="1044" y="176" width="260" height="92" rx="20" ry="20" fill="#FFFFFF" stroke="#E5E5EA" stroke-width="2" filter="url(#shadowSmall)"/>
  <rect x="1060" y="192" width="16" height="16" rx="4" ry="4" fill="#8E8E93"/>
  <text x="1092" y="212" font-family="-apple-system, 'SF Pro Display', system-ui, sans-serif" font-size="24" font-weight="600" fill="#1D1D1F">Watch</text>
  <text x="1092" y="244" font-family="-apple-system, 'SF Pro Display', system-ui, sans-serif" font-size="18" fill="#34C759" font-weight="500">CommunityUI only</text>

  <rect x="1328" y="176" width="260" height="92" rx="20" ry="20" fill="#FFFFFF" stroke="#E5E5EA" stroke-width="2" filter="url(#shadowSmall)"/>
  <rect x="1344" y="192" width="16" height="16" rx="4" ry="4" fill="#8E8E93"/>
  <text x="1376" y="212" font-family="-apple-system, 'SF Pro Display', system-ui, sans-serif" font-size="24" font-weight="600" fill="#1D1D1F">Intent</text>
  <text x="1376" y="244" font-family="-apple-system, 'SF Pro Display', system-ui, sans-serif" font-size="18" fill="#34C759" font-weight="500">Domain only</text>

  <!-- ==================== ARROWS: App Shell to Features ==================== -->
  <line x1="316" y1="296" x2="316" y2="340" stroke="#C7C7CC" stroke-width="3" marker-end="url(#arrowDown)"/>
  <line x1="890" y1="268" x2="890" y2="340" stroke="#C7C7CC" stroke-width="3" marker-end="url(#arrowDown)"/>
  <line x1="1174" y1="268" x2="1174" y2="340" stroke="#C7C7CC" stroke-width="3" marker-end="url(#arrowDown)"/>
  <line x1="1458" y1="268" x2="1458" y2="340" stroke="#C7C7CC" stroke-width="3" marker-end="url(#arrowDown)"/>

  <!-- ==================== LAYER 2: FEATURE PACKAGES ==================== -->
  <rect x="60" y="352" width="1680" height="396" rx="28" ry="28" fill="#F6FEF8" stroke="#C8F0D2" stroke-width="2"/>

  <!-- Layer label -->
  <text x="96" y="392" font-family="-apple-system, 'SF Pro Display', system-ui, sans-serif" font-size="20" font-weight="600" fill="#248A3D" letter-spacing="2.4">FEATURE PACKAGES</text>
  <text x="380" y="392" font-family="-apple-system, 'SF Pro Display', system-ui, sans-serif" font-size="20" fill="#8E8E93">Each feature is a Swift Package — isolated, independently buildable</text>

  <!-- Row 1 of features -->
  <rect x="96" y="420" width="296" height="128" rx="20" ry="20" fill="#FFFFFF" stroke="#C8F0D2" stroke-width="2" filter="url(#shadowSmall)"/>
  <rect x="112" y="440" width="20" height="20" rx="6" ry="6" fill="#34C759"/>
  <text x="148" y="460" font-family="-apple-system, 'SF Pro Display', system-ui, sans-serif" font-size="24" font-weight="600" fill="#1D1D1F">FeatureHome</text>
  <text x="112" y="520" font-family="-apple-system, 'SF Pro Display', system-ui, sans-serif" font-size="20" fill="#8E8E93">~20 files</text>

  <rect x="416" y="420" width="296" height="128" rx="20" ry="20" fill="#FFFFFF" stroke="#C8F0D2" stroke-width="2" filter="url(#shadowSmall)"/>
  <rect x="432" y="440" width="20" height="20" rx="6" ry="6" fill="#34C759"/>
  <text x="468" y="460" font-family="-apple-system, 'SF Pro Display', system-ui, sans-serif" font-size="24" font-weight="600" fill="#1D1D1F">FeatureVisitors</text>
  <text x="432" y="520" font-family="-apple-system, 'SF Pro Display', system-ui, sans-serif" font-size="20" fill="#8E8E93">~25 files</text>

  <rect x="736" y="420" width="296" height="128" rx="20" ry="20" fill="#FFFFFF" stroke="#C8F0D2" stroke-width="2" filter="url(#shadowSmall)"/>
  <rect x="752" y="440" width="20" height="20" rx="6" ry="6" fill="#34C759"/>
  <text x="788" y="460" font-family="-apple-system, 'SF Pro Display', system-ui, sans-serif" font-size="24" font-weight="600" fill="#1D1D1F">FeatureHistory</text>
  <text x="752" y="520" font-family="-apple-system, 'SF Pro Display', system-ui, sans-serif" font-size="20" fill="#8E8E93">~15 files</text>

  <rect x="1056" y="420" width="296" height="128" rx="20" ry="20" fill="#FFFFFF" stroke="#C8F0D2" stroke-width="2" filter="url(#shadowSmall)"/>
  <rect x="1072" y="440" width="20" height="20" rx="6" ry="6" fill="#34C759"/>
  <text x="1108" y="460" font-family="-apple-system, 'SF Pro Display', system-ui, sans-serif" font-size="24" font-weight="600" fill="#1D1D1F">FeatureAccount</text>
  <text x="1072" y="520" font-family="-apple-system, 'SF Pro Display', system-ui, sans-serif" font-size="20" fill="#8E8E93">~20 files</text>

  <rect x="1376" y="420" width="296" height="128" rx="20" ry="20" fill="#FFFFFF" stroke="#C8F0D2" stroke-width="2" filter="url(#shadowSmall)"/>
  <rect x="1392" y="440" width="20" height="20" rx="6" ry="6" fill="#34C759"/>
  <text x="1428" y="460" font-family="-apple-system, 'SF Pro Display', system-ui, sans-serif" font-size="24" font-weight="600" fill="#1D1D1F">FeatureAdmin</text>
  <text x="1392" y="520" font-family="-apple-system, 'SF Pro Display', system-ui, sans-serif" font-size="20" fill="#8E8E93">~18 files</text>

  <!-- Row 2 of features -->
  <rect x="96" y="580" width="296" height="128" rx="20" ry="20" fill="#FFFFFF" stroke="#C8F0D2" stroke-width="2" filter="url(#shadowSmall)"/>
  <rect x="112" y="600" width="20" height="20" rx="6" ry="6" fill="#34C759"/>
  <text x="148" y="620" font-family="-apple-system, 'SF Pro Display', system-ui, sans-serif" font-size="22" font-weight="600" fill="#1D1D1F">FeatureOnboarding</text>
  <text x="112" y="680" font-family="-apple-system, 'SF Pro Display', system-ui, sans-serif" font-size="20" fill="#8E8E93">~22 files</text>

  <rect x="416" y="580" width="296" height="128" rx="20" ry="20" fill="#FFFFFF" stroke="#C8F0D2" stroke-width="2" filter="url(#shadowSmall)"/>
  <rect x="432" y="600" width="20" height="20" rx="6" ry="6" fill="#34C759"/>
  <text x="468" y="620" font-family="-apple-system, 'SF Pro Display', system-ui, sans-serif" font-size="21" font-weight="600" fill="#1D1D1F">FeatureVideoCalling</text>
  <text x="432" y="680" font-family="-apple-system, 'SF Pro Display', system-ui, sans-serif" font-size="20" fill="#8E8E93">~15 files</text>

  <rect x="736" y="580" width="324" height="128" rx="20" ry="20" fill="#FFFFFF" stroke="#C8F0D2" stroke-width="2" filter="url(#shadowSmall)"/>
  <rect x="752" y="600" width="20" height="20" rx="6" ry="6" fill="#34C759"/>
  <text x="788" y="620" font-family="-apple-system, 'SF Pro Display', system-ui, sans-serif" font-size="19" font-weight="600" fill="#1D1D1F">FeatureMobileCredentials</text>
  <text x="752" y="680" font-family="-apple-system, 'SF Pro Display', system-ui, sans-serif" font-size="20" fill="#8E8E93">~18 files</text>

  <rect x="1084" y="580" width="296" height="128" rx="20" ry="20" fill="#FFFFFF" stroke="#C8F0D2" stroke-width="2" filter="url(#shadowSmall)"/>
  <rect x="1100" y="600" width="20" height="20" rx="6" ry="6" fill="#34C759"/>
  <text x="1136" y="620" font-family="-apple-system, 'SF Pro Display', system-ui, sans-serif" font-size="24" font-weight="600" fill="#1D1D1F">FeatureContent</text>
  <text x="1100" y="680" font-family="-apple-system, 'SF Pro Display', system-ui, sans-serif" font-size="20" fill="#8E8E93">~12 files</text>

  <rect x="1404" y="580" width="320" height="128" rx="20" ry="20" fill="#FFFFFF" stroke="#C8F0D2" stroke-width="2" filter="url(#shadowSmall)"/>
  <rect x="1420" y="600" width="20" height="20" rx="6" ry="6" fill="#34C759"/>
  <text x="1456" y="620" font-family="-apple-system, 'SF Pro Display', system-ui, sans-serif" font-size="20" font-weight="600" fill="#1D1D1F">FeatureAnnouncements</text>
  <text x="1420" y="680" font-family="-apple-system, 'SF Pro Display', system-ui, sans-serif" font-size="20" fill="#8E8E93">~14 files</text>

  <!-- ==================== NO HORIZONTAL ARROWS — Red X marks ==================== -->
  <g opacity="0.35">
    <!-- Row 1 gaps -->
    <line x1="400" y1="484" x2="408" y2="484" stroke="#FF3B30" stroke-width="4" stroke-linecap="round"/>
    <line x1="396" y1="478" x2="412" y2="490" stroke="#FF3B30" stroke-width="2.4" stroke-linecap="round"/>
    <line x1="396" y1="490" x2="412" y2="478" stroke="#FF3B30" stroke-width="2.4" stroke-linecap="round"/>

    <line x1="720" y1="484" x2="728" y2="484" stroke="#FF3B30" stroke-width="4" stroke-linecap="round"/>
    <line x1="716" y1="478" x2="732" y2="490" stroke="#FF3B30" stroke-width="2.4" stroke-linecap="round"/>
    <line x1="716" y1="490" x2="732" y2="478" stroke="#FF3B30" stroke-width="2.4" stroke-linecap="round"/>

    <line x1="1040" y1="484" x2="1048" y2="484" stroke="#FF3B30" stroke-width="4" stroke-linecap="round"/>
    <line x1="1036" y1="478" x2="1052" y2="490" stroke="#FF3B30" stroke-width="2.4" stroke-linecap="round"/>
    <line x1="1036" y1="490" x2="1052" y2="478" stroke="#FF3B30" stroke-width="2.4" stroke-linecap="round"/>

    <line x1="1360" y1="484" x2="1368" y2="484" stroke="#FF3B30" stroke-width="4" stroke-linecap="round"/>
    <line x1="1356" y1="478" x2="1372" y2="490" stroke="#FF3B30" stroke-width="2.4" stroke-linecap="round"/>
    <line x1="1356" y1="490" x2="1372" y2="478" stroke="#FF3B30" stroke-width="2.4" stroke-linecap="round"/>
  </g>

  <!-- ==================== ARROWS: Features to Domain ==================== -->
  <line x1="244" y1="748" x2="244" y2="790" stroke="#C7C7CC" stroke-width="3" marker-end="url(#arrowDown)"/>
  <line x1="564" y1="748" x2="564" y2="790" stroke="#C7C7CC" stroke-width="3" marker-end="url(#arrowDown)"/>
  <line x1="898" y1="748" x2="898" y2="790" stroke="#C7C7CC" stroke-width="3" marker-end="url(#arrowDown)"/>
  <line x1="1232" y1="748" x2="1232" y2="790" stroke="#C7C7CC" stroke-width="3" marker-end="url(#arrowDown)"/>
  <line x1="1524" y1="748" x2="1524" y2="790" stroke="#C7C7CC" stroke-width="3" marker-end="url(#arrowDown)"/>

  <!-- ==================== LAYER 3: DOMAIN ==================== -->
  <rect x="60" y="800" width="1680" height="152" rx="28" ry="28" fill="#F0F5FF" stroke="#B3D4FF" stroke-width="2"/>

  <!-- Layer label -->
  <text x="96" y="840" font-family="-apple-system, 'SF Pro Display', system-ui, sans-serif" font-size="20" font-weight="600" fill="#007AFF" letter-spacing="2.4">DOMAIN</text>

  <!-- Domain package -->
  <rect x="96" y="860" width="1608" height="68" rx="16" ry="16" fill="#FFFFFF" stroke="#B3D4FF" stroke-width="2" filter="url(#shadowSmall)"/>
  <rect x="116" y="878" width="20" height="20" rx="6" ry="6" fill="#007AFF"/>
  <text x="156" y="900" font-family="-apple-system, 'SF Pro Display', system-ui, sans-serif" font-size="26" font-weight="600" fill="#1D1D1F">CommunityDomain</text>
  <text x="460" y="900" font-family="-apple-system, 'SF Pro Display', system-ui, sans-serif" font-size="22" fill="#8E8E93">Use Cases  ·  Repository Protocols  ·  Domain Models  ·  Business Rules</text>

  <!-- ==================== ARROWS: Domain to Core ==================== -->
  <line x1="400" y1="952" x2="400" y2="990" stroke="#C7C7CC" stroke-width="3" marker-end="url(#arrowDown)"/>
  <line x1="900" y1="952" x2="900" y2="990" stroke="#C7C7CC" stroke-width="3" marker-end="url(#arrowDown)"/>
  <line x1="1400" y1="952" x2="1400" y2="990" stroke="#C7C7CC" stroke-width="3" marker-end="url(#arrowDown)"/>

  <!-- ==================== LAYER 4: CORE / INFRASTRUCTURE ==================== -->
  <rect x="60" y="1000" width="1680" height="130" rx="28" ry="28" fill="#F0FAFE" stroke="#ADE4F9" stroke-width="2"/>

  <!-- Layer label -->
  <text x="96" y="1040" font-family="-apple-system, 'SF Pro Display', system-ui, sans-serif" font-size="20" font-weight="600" fill="#0A84B0" letter-spacing="2.4">CORE / INFRASTRUCTURE</text>

  <!-- Core packages -->
  <rect x="96" y="1060" width="372" height="50" rx="16" ry="16" fill="#FFFFFF" stroke="#ADE4F9" stroke-width="2" filter="url(#shadowSmall)"/>
  <rect x="116" y="1074" width="20" height="20" rx="6" ry="6" fill="#5AC8FA"/>
  <text x="152" y="1094" font-family="-apple-system, 'SF Pro Display', system-ui, sans-serif" font-size="24" font-weight="600" fill="#1D1D1F">CommunityUI</text>

  <rect x="500" y="1060" width="372" height="50" rx="16" ry="16" fill="#FFFFFF" stroke="#ADE4F9" stroke-width="2" filter="url(#shadowSmall)"/>
  <rect x="520" y="1074" width="20" height="20" rx="6" ry="6" fill="#AF52DE"/>
  <text x="556" y="1094" font-family="-apple-system, 'SF Pro Display', system-ui, sans-serif" font-size="24" font-weight="600" fill="#1D1D1F">CommunityAnalytics</text>

  <rect x="904" y="1060" width="372" height="50" rx="16" ry="16" fill="#FFFFFF" stroke="#ADE4F9" stroke-width="2" filter="url(#shadowSmall)"/>
  <rect x="924" y="1074" width="20" height="20" rx="6" ry="6" fill="#5AC8FA"/>
  <text x="960" y="1094" font-family="-apple-system, 'SF Pro Display', system-ui, sans-serif" font-size="24" font-weight="600" fill="#1D1D1F">MyQNetworking</text>
  <!-- Preserved badge -->
  <rect x="1142" y="1068" width="120" height="32" rx="16" ry="16" fill="#F0FFF4" stroke="#A3E8B8" stroke-width="1.5"/>
  <text x="1160" y="1091" font-family="-apple-system, 'SF Pro Display', system-ui, sans-serif" font-size="16" font-weight="600" fill="#248A3D">✅ Preserved</text>

  <!-- ==================== ARROWS: Core to Data ==================== -->
  <line x1="400" y1="1130" x2="400" y2="1162" stroke="#C7C7CC" stroke-width="3" marker-end="url(#arrowDown)"/>
  <line x1="900" y1="1130" x2="900" y2="1162" stroke="#C7C7CC" stroke-width="3" marker-end="url(#arrowDown)"/>
  <line x1="1400" y1="1130" x2="1400" y2="1162" stroke="#C7C7CC" stroke-width="3" marker-end="url(#arrowDown)"/>

  <!-- ==================== LAYER 5: DATA ==================== -->
  <rect x="60" y="1172" width="1680" height="90" rx="28" ry="28" fill="#F0F5FF" stroke="#B3D4FF" stroke-width="2"/>

  <!-- Layer label -->
  <text x="96" y="1207" font-family="-apple-system, 'SF Pro Display', system-ui, sans-serif" font-size="20" font-weight="600" fill="#007AFF" letter-spacing="2.4">DATA</text>

  <!-- Data packages -->
  <rect x="96" y="1218" width="392" height="30" rx="12" ry="12" fill="#FFFFFF" stroke="#B3D4FF" stroke-width="2"/>
  <rect x="112" y="1224" width="16" height="16" rx="4" ry="4" fill="#007AFF"/>
  <text x="138" y="1241" font-family="-apple-system, 'SF Pro Display', system-ui, sans-serif" font-size="22" font-weight="500" fill="#1D1D1F">CommunityNetworking</text>
  <!-- SDK-ready label -->
  <rect x="380" y="1222" width="100" height="24" rx="12" ry="12" fill="#F0F5FF" stroke="#B3D4FF" stroke-width="1"/>
  <text x="397" y="1240" font-family="-apple-system, 'SF Pro Display', system-ui, sans-serif" font-size="14" font-weight="600" fill="#007AFF">SDK-ready</text>

  <rect x="520" y="1218" width="372" height="30" rx="12" ry="12" fill="#FFFFFF" stroke="#ADE4F9" stroke-width="2"/>
  <rect x="536" y="1224" width="16" height="16" rx="4" ry="4" fill="#5AC8FA"/>
  <text x="562" y="1241" font-family="-apple-system, 'SF Pro Display', system-ui, sans-serif" font-size="22" font-weight="500" fill="#1D1D1F">CommunityMockData</text>

  <!-- ==================== ARROWS: Data to Vendor ==================== -->
  <line x1="400" y1="1262" x2="400" y2="1290" stroke="#C7C7CC" stroke-width="3" marker-end="url(#arrowDown)"/>
  <line x1="900" y1="1262" x2="900" y2="1290" stroke="#C7C7CC" stroke-width="3" marker-end="url(#arrowDown)"/>

  <!-- ==================== LAYER 6: VENDOR ==================== -->
  <rect x="60" y="1298" width="1680" height="56" rx="28" ry="28" fill="#F5F5FA" stroke="#E5E5EA" stroke-width="2"/>

  <!-- Layer label -->
  <text x="96" y="1318" font-family="-apple-system, 'SF Pro Display', system-ui, sans-serif" font-size="20" font-weight="600" fill="#8E8E93" letter-spacing="2.4">VENDOR</text>

  <!-- Vendor packages -->
  <rect x="250" y="1310" width="280" height="34" rx="12" ry="12" fill="#FFFFFF" stroke="#E5E5EA" stroke-width="2"/>
  <text x="274" y="1334" font-family="-apple-system, 'SF Pro Display', system-ui, sans-serif" font-size="22" font-weight="500" fill="#1D1D1F">CommunityDataModel</text>

  <rect x="560" y="1310" width="280" height="34" rx="12" ry="12" fill="#FFFFFF" stroke="#E5E5EA" stroke-width="2"/>
  <text x="584" y="1334" font-family="-apple-system, 'SF Pro Display', system-ui, sans-serif" font-size="22" font-weight="500" fill="#1D1D1F">CommunityKeychain</text>

  <rect x="870" y="1310" width="280" height="34" rx="12" ry="12" fill="#FFFFFF" stroke="#E5E5EA" stroke-width="2"/>
  <text x="894" y="1334" font-family="-apple-system, 'SF Pro Display', system-ui, sans-serif" font-size="22" font-weight="500" fill="#1D1D1F">MyQAttestation</text>

  <rect x="1180" y="1310" width="280" height="34" rx="12" ry="12" fill="#FFFFFF" stroke="#E5E5EA" stroke-width="2"/>
  <text x="1204" y="1334" font-family="-apple-system, 'SF Pro Display', system-ui, sans-serif" font-size="22" font-weight="500" fill="#1D1D1F">MyQSmartReader</text>

  <!-- Bottom caption -->
  <text x="900" y="1385" text-anchor="middle" font-family="-apple-system, 'SF Pro Display', system-ui, sans-serif" font-size="22" fill="#8E8E93">Dependencies flow strictly downward — no cross-feature imports, no circular references, compiler-enforced boundaries</text>
</svg>