<svg xmlns="http://www.w3.org/2000/svg" viewBox="0 0 900 600" width="900" height="600">
  <defs>
    <filter id="shadow" x="-4%" y="-4%" width="108%" height="112%">
      <feDropShadow dx="0" dy="2" stdDeviation="4" flood-color="rgba(0,0,0,0.08)"/>
    </filter>
    <filter id="shadowSmall" x="-4%" y="-4%" width="108%" height="116%">
      <feDropShadow dx="0" dy="1" stdDeviation="2" flood-color="rgba(0,0,0,0.06)"/>
    </filter>
    <marker id="arrowRed" viewBox="0 0 10 7" refX="10" refY="3.5" markerWidth="8" markerHeight="6" orient="auto-start-reverse">
      <polygon points="0 0, 10 3.5, 0 7" fill="#FF6B6B"/>
    </marker>
    <marker id="arrowGray" viewBox="0 0 10 7" refX="10" refY="3.5" markerWidth="8" markerHeight="6" orient="auto-start-reverse">
      <polygon points="0 0, 10 3.5, 0 7" fill="#C7C7CC"/>
    </marker>
  </defs>

  <!-- Background -->
  <rect width="900" height="600" fill="#FFFFFF"/>

  <!-- Title -->
  <text x="40" y="42" font-family="-apple-system, 'SF Pro Display', system-ui, sans-serif" font-size="20" font-weight="700" fill="#1D1D1F">Before</text>
  <text x="108" y="42" font-family="-apple-system, 'SF Pro Display', system-ui, sans-serif" font-size="20" font-weight="400" fill="#8E8E93"> — Monolithic Architecture</text>

  <!-- Badge top-right -->
  <rect x="578" y="18" width="300" height="32" rx="16" ry="16" fill="#FFF3F0" stroke="#FFD6CC" stroke-width="1" filter="url(#shadowSmall)"/>
  <text x="598" y="39" font-family="-apple-system, 'SF Pro Display', system-ui, sans-serif" font-size="11" font-weight="600" fill="#E8453C">350+ files · 1 module · Full recompile</text>
  <circle cx="862" cy="34" r="6" fill="#FF3B30"/>
  <text x="858.5" y="37.5" font-family="-apple-system, 'SF Pro Display', system-ui, sans-serif" font-size="9" font-weight="700" fill="#FFFFFF">!</text>

  <!-- Main monolith container -->
  <rect x="40" y="68" width="620" height="480" rx="16" ry="16" fill="#FAFAFA" stroke="#E5E5EA" stroke-width="1.5" filter="url(#shadow)"/>
  <rect x="40" y="68" width="620" height="44" rx="16" ry="16" fill="#F2F2F7"/>
  <rect x="40" y="96" width="620" height="16" fill="#F2F2F7"/>
  <text x="60" y="97" font-family="-apple-system, 'SF Pro Display', system-ui, sans-serif" font-size="14" font-weight="600" fill="#1D1D1F">community.xcodeproj</text>
  <text x="310" y="97" font-family="-apple-system, 'SF Pro Display', system-ui, sans-serif" font-size="11" fill="#8E8E93">Single Target · Everything Coupled</text>

  <!-- Tangled spaghetti lines (drawn first, behind boxes) -->
  <!-- Layer of chaotic coupling lines -->
  <g opacity="0.5">
    <!-- Horizontal tangles -->
    <path d="M120,200 C200,160 280,260 360,190" stroke="#FF6B6B" stroke-width="1.2" fill="none" stroke-dasharray="3,2"/>
    <path d="M180,240 C260,300 340,180 450,260" stroke="#FF9500" stroke-width="1.2" fill="none"/>
    <path d="M100,280 C200,350 350,200 500,300" stroke="#FF6B6B" stroke-width="1" fill="none" stroke-dasharray="4,2"/>
    <path d="M200,180 C300,250 180,320 400,220" stroke="#FF9500" stroke-width="1" fill="none"/>
    <path d="M380,180 C420,280 280,300 520,240" stroke="#FF6B6B" stroke-width="1.2" fill="none"/>
    <path d="M140,320 C250,250 350,380 500,280" stroke="#FF9500" stroke-width="1" fill="none" stroke-dasharray="3,3"/>
    <path d="M460,190 C500,300 350,350 580,250" stroke="#FF6B6B" stroke-width="1" fill="none"/>
    <path d="M100,380 C200,300 400,420 560,350" stroke="#FF9500" stroke-width="1.2" fill="none"/>
    <path d="M200,350 C320,280 180,420 450,370" stroke="#FF6B6B" stroke-width="1" fill="none" stroke-dasharray="4,3"/>
    <path d="M300,200 C350,350 450,250 400,400" stroke="#FF9500" stroke-width="1" fill="none"/>

    <!-- Vertical tangles -->
    <path d="M150,170 C120,280 250,300 180,420" stroke="#FF6B6B" stroke-width="1" fill="none"/>
    <path d="M350,160 C400,280 300,350 380,450" stroke="#FF9500" stroke-width="1.2" fill="none" stroke-dasharray="3,2"/>
    <path d="M500,180 C460,300 540,350 480,440" stroke="#FF6B6B" stroke-width="1" fill="none"/>
    <path d="M250,200 C220,320 300,380 260,470" stroke="#FF9500" stroke-width="1" fill="none" stroke-dasharray="4,2"/>

    <!-- Cross tangles -->
    <path d="M100,200 C300,350 450,180 600,400" stroke="#FF6B6B" stroke-width="1" fill="none"/>
    <path d="M580,170 C400,300 200,250 120,450" stroke="#FF9500" stroke-width="1.2" fill="none" stroke-dasharray="3,3"/>
    <path d="M300,160 C150,350 500,400 250,490" stroke="#FF6B6B" stroke-width="1" fill="none"/>
    <path d="M550,200 C350,320 500,400 200,380" stroke="#FF9500" stroke-width="1" fill="none" stroke-dasharray="5,2"/>

    <!-- Dense center coupling -->
    <path d="M250,250 C300,200 350,300 400,250" stroke="#FF3B30" stroke-width="1.5" fill="none"/>
    <path d="M280,280 C350,230 320,350 420,280" stroke="#FF3B30" stroke-width="1.2" fill="none"/>
    <path d="M200,300 C300,250 280,380 400,310" stroke="#FF3B30" stroke-width="1" fill="none"/>
    <path d="M320,220 C280,320 400,280 350,380" stroke="#FF3B30" stroke-width="1.3" fill="none"/>
  </g>

  <!-- Internal boxes — User Flows cluster -->
  <text x="60" y="140" font-family="-apple-system, 'SF Pro Display', system-ui, sans-serif" font-size="10" font-weight="600" fill="#8E8E93" letter-spacing="1" text-transform="uppercase">USER FLOWS</text>

  <rect x="60" y="152" width="100" height="36" rx="8" ry="8" fill="#FFF8F0" stroke="#FFD6A8" stroke-width="1" filter="url(#shadowSmall)"/>
  <text x="110" y="174" text-anchor="middle" font-family="-apple-system, 'SF Pro Display', system-ui, sans-serif" font-size="11" font-weight="500" fill="#CC7700">Home</text>

  <rect x="170" y="148" width="100" height="36" rx="8" ry="8" fill="#FFF8F0" stroke="#FFD6A8" stroke-width="1" filter="url(#shadowSmall)"/>
  <text x="220" y="170" text-anchor="middle" font-family="-apple-system, 'SF Pro Display', system-ui, sans-serif" font-size="11" font-weight="500" fill="#CC7700">Visitors</text>

  <rect x="280" y="155" width="100" height="36" rx="8" ry="8" fill="#FFF8F0" stroke="#FFD6A8" stroke-width="1" filter="url(#shadowSmall)"/>
  <text x="330" y="177" text-anchor="middle" font-family="-apple-system, 'SF Pro Display', system-ui, sans-serif" font-size="11" font-weight="500" fill="#CC7700">History</text>

  <rect x="390" y="148" width="100" height="36" rx="8" ry="8" fill="#FFF8F0" stroke="#FFD6A8" stroke-width="1" filter="url(#shadowSmall)"/>
  <text x="440" y="170" text-anchor="middle" font-family="-apple-system, 'SF Pro Display', system-ui, sans-serif" font-size="11" font-weight="500" fill="#CC7700">Account</text>

  <rect x="500" y="152" width="100" height="36" rx="8" ry="8" fill="#FFF8F0" stroke="#FFD6A8" stroke-width="1" filter="url(#shadowSmall)"/>
  <text x="550" y="174" text-anchor="middle" font-family="-apple-system, 'SF Pro Display', system-ui, sans-serif" font-size="11" font-weight="500" fill="#CC7700">Onboarding</text>

  <rect x="80" y="195" width="96" height="36" rx="8" ry="8" fill="#FFF8F0" stroke="#FFD6A8" stroke-width="1" filter="url(#shadowSmall)"/>
  <text x="128" y="217" text-anchor="middle" font-family="-apple-system, 'SF Pro Display', system-ui, sans-serif" font-size="11" font-weight="500" fill="#CC7700">Video Call</text>

  <rect x="186" y="200" width="96" height="36" rx="8" ry="8" fill="#FFF8F0" stroke="#FFD6A8" stroke-width="1" filter="url(#shadowSmall)"/>
  <text x="234" y="222" text-anchor="middle" font-family="-apple-system, 'SF Pro Display', system-ui, sans-serif" font-size="11" font-weight="500" fill="#CC7700">Admin</text>

  <rect x="292" y="195" width="96" height="36" rx="8" ry="8" fill="#FFF8F0" stroke="#FFD6A8" stroke-width="1" filter="url(#shadowSmall)"/>
  <text x="340" y="217" text-anchor="middle" font-family="-apple-system, 'SF Pro Display', system-ui, sans-serif" font-size="11" font-weight="500" fill="#CC7700">Content</text>

  <!-- Ellipsis for more flows -->
  <rect x="398" y="198" width="80" height="32" rx="8" ry="8" fill="#FFF0E0" stroke="#FFD6A8" stroke-width="1" stroke-dasharray="4,2"/>
  <text x="438" y="218" text-anchor="middle" font-family="-apple-system, 'SF Pro Display', system-ui, sans-serif" font-size="11" font-weight="500" fill="#CC7700">+10 more</text>

  <!-- Data Coordinators cluster -->
  <text x="60" y="265" font-family="-apple-system, 'SF Pro Display', system-ui, sans-serif" font-size="10" font-weight="600" fill="#8E8E93" letter-spacing="1">DATA COORDINATORS</text>

  <rect x="60" y="278" width="120" height="34" rx="8" ry="8" fill="#FFF0F0" stroke="#FFB3B3" stroke-width="1" filter="url(#shadowSmall)"/>
  <text x="120" y="299" text-anchor="middle" font-family="-apple-system, 'SF Pro Display', system-ui, sans-serif" font-size="10" font-weight="500" fill="#D63030">AccountCoordinator</text>

  <rect x="190" y="275" width="120" height="34" rx="8" ry="8" fill="#FFF0F0" stroke="#FFB3B3" stroke-width="1" filter="url(#shadowSmall)"/>
  <text x="250" y="296" text-anchor="middle" font-family="-apple-system, 'SF Pro Display', system-ui, sans-serif" font-size="10" font-weight="500" fill="#D63030">VisitorCoordinator</text>

  <rect x="320" y="280" width="120" height="34" rx="8" ry="8" fill="#FFF0F0" stroke="#FFB3B3" stroke-width="1" filter="url(#shadowSmall)"/>
  <text x="380" y="301" text-anchor="middle" font-family="-apple-system, 'SF Pro Display', system-ui, sans-serif" font-size="10" font-weight="500" fill="#D63030">DeviceCoordinator</text>

  <rect x="450" y="276" width="120" height="34" rx="8" ry="8" fill="#FFF0F0" stroke="#FFB3B3" stroke-width="1" filter="url(#shadowSmall)"/>
  <text x="510" y="297" text-anchor="middle" font-family="-apple-system, 'SF Pro Display', system-ui, sans-serif" font-size="10" font-weight="500" fill="#D63030">HistoryCoordinator</text>

  <rect x="100" y="318" width="120" height="34" rx="8" ry="8" fill="#FFF0F0" stroke="#FFB3B3" stroke-width="1" filter="url(#shadowSmall)"/>
  <text x="160" y="339" text-anchor="middle" font-family="-apple-system, 'SF Pro Display', system-ui, sans-serif" font-size="10" font-weight="500" fill="#D63030">AuthCoordinator</text>

  <rect x="230" y="322" width="120" height="34" rx="8" ry="8" fill="#FFF0F0" stroke="#FFB3B3" stroke-width="1" filter="url(#shadowSmall)"/>
  <text x="290" y="343" text-anchor="middle" font-family="-apple-system, 'SF Pro Display', system-ui, sans-serif" font-size="10" font-weight="500" fill="#D63030">PushCoordinator</text>

  <rect x="360" y="318" width="80" height="34" rx="8" ry="8" fill="#FFE8E8" stroke="#FFB3B3" stroke-width="1" stroke-dasharray="4,2"/>
  <text x="400" y="339" text-anchor="middle" font-family="-apple-system, 'SF Pro Display', system-ui, sans-serif" font-size="10" font-weight="500" fill="#D63030">+10 more</text>

  <!-- Static singleton warning -->
  <rect x="460" y="320" width="170" height="28" rx="14" ry="14" fill="#FFF0F0" stroke="#FF3B30" stroke-width="1"/>
  <text x="475" y="338" font-family="-apple-system, 'SF Pro Display', system-ui, sans-serif" font-size="10" font-weight="600" fill="#FF3B30">⚠ All static singletons</text>

  <!-- Utilities cluster -->
  <text x="60" y="385" font-family="-apple-system, 'SF Pro Display', system-ui, sans-serif" font-size="10" font-weight="600" fill="#8E8E93" letter-spacing="1">UTILITIES &amp; CATEGORIES</text>

  <rect x="60" y="398" width="95" height="32" rx="8" ry="8" fill="#F0F0F5" stroke="#D1D1D6" stroke-width="1" filter="url(#shadowSmall)"/>
  <text x="107" y="418" text-anchor="middle" font-family="-apple-system, 'SF Pro Display', system-ui, sans-serif" font-size="10" font-weight="500" fill="#636366">Extensions</text>

  <rect x="165" y="395" width="95" height="32" rx="8" ry="8" fill="#F0F0F5" stroke="#D1D1D6" stroke-width="1" filter="url(#shadowSmall)"/>
  <text x="212" y="415" text-anchor="middle" font-family="-apple-system, 'SF Pro Display', system-ui, sans-serif" font-size="10" font-weight="500" fill="#636366">Formatters</text>

  <rect x="270" y="400" width="95" height="32" rx="8" ry="8" fill="#F0F0F5" stroke="#D1D1D6" stroke-width="1" filter="url(#shadowSmall)"/>
  <text x="317" y="420" text-anchor="middle" font-family="-apple-system, 'SF Pro Display', system-ui, sans-serif" font-size="10" font-weight="500" fill="#636366">Helpers</text>

  <rect x="375" y="396" width="95" height="32" rx="8" ry="8" fill="#F0F0F5" stroke="#D1D1D6" stroke-width="1" filter="url(#shadowSmall)"/>
  <text x="422" y="416" text-anchor="middle" font-family="-apple-system, 'SF Pro Display', system-ui, sans-serif" font-size="10" font-weight="500" fill="#636366">Networking</text>

  <rect x="480" y="400" width="95" height="32" rx="8" ry="8" fill="#F0F0F5" stroke="#D1D1D6" stroke-width="1" filter="url(#shadowSmall)"/>
  <text x="527" y="420" text-anchor="middle" font-family="-apple-system, 'SF Pro Display', system-ui, sans-serif" font-size="10" font-weight="500" fill="#636366">Analytics</text>

  <rect x="100" y="436" width="95" height="32" rx="8" ry="8" fill="#F0F0F5" stroke="#D1D1D6" stroke-width="1" filter="url(#shadowSmall)"/>
  <text x="147" y="456" text-anchor="middle" font-family="-apple-system, 'SF Pro Display', system-ui, sans-serif" font-size="10" font-weight="500" fill="#636366">UI Shared</text>

  <rect x="205" y="440" width="95" height="32" rx="8" ry="8" fill="#F0F0F5" stroke="#D1D1D6" stroke-width="1" filter="url(#shadowSmall)"/>
  <text x="252" y="460" text-anchor="middle" font-family="-apple-system, 'SF Pro Display', system-ui, sans-serif" font-size="10" font-weight="500" fill="#636366">Constants</text>

  <rect x="310" y="436" width="95" height="32" rx="8" ry="8" fill="#F0F0F5" stroke="#D1D1D6" stroke-width="1" filter="url(#shadowSmall)"/>
  <text x="357" y="456" text-anchor="middle" font-family="-apple-system, 'SF Pro Display', system-ui, sans-serif" font-size="10" font-weight="500" fill="#636366">KeychainUtil</text>

  <rect x="415" y="440" width="80" height="32" rx="8" ry="8" fill="#EAEAEF" stroke="#D1D1D6" stroke-width="1" stroke-dasharray="4,2"/>
  <text x="455" y="460" text-anchor="middle" font-family="-apple-system, 'SF Pro Display', system-ui, sans-serif" font-size="10" font-weight="500" fill="#636366">+13 more</text>

  <!-- File count label bottom -->
  <rect x="60" y="490" width="580" height="40" rx="10" ry="10" fill="#FFF8F0" stroke="#FFD6A8" stroke-width="1"/>
  <text x="350" y="515" text-anchor="middle" font-family="-apple-system, 'SF Pro Display', system-ui, sans-serif" font-size="12" font-weight="600" fill="#CC7700">350+ Swift files in a single compilation unit — any change triggers full rebuild</text>

  <!-- Extension targets (outside main container) -->
  <text x="700" y="90" font-family="-apple-system, 'SF Pro Display', system-ui, sans-serif" font-size="10" font-weight="600" fill="#8E8E93" letter-spacing="1">EXTENSIONS</text>

  <!-- Widget Extension -->
  <rect x="695" y="105" width="170" height="56" rx="12" ry="12" fill="#FFFFFF" stroke="#E5E5EA" stroke-width="1" filter="url(#shadow)"/>
  <text x="780" y="128" text-anchor="middle" font-family="-apple-system, 'SF Pro Display', system-ui, sans-serif" font-size="13" font-weight="600" fill="#1D1D1F">Widget</text>
  <text x="780" y="148" text-anchor="middle" font-family="-apple-system, 'SF Pro Display', system-ui, sans-serif" font-size="10" fill="#FF3B30" font-weight="500">imports entire app</text>

  <!-- Watch Extension -->
  <rect x="695" y="175" width="170" height="56" rx="12" ry="12" fill="#FFFFFF" stroke="#E5E5EA" stroke-width="1" filter="url(#shadow)"/>
  <text x="780" y="198" text-anchor="middle" font-family="-apple-system, 'SF Pro Display', system-ui, sans-serif" font-size="13" font-weight="600" fill="#1D1D1F">Watch</text>
  <text x="780" y="218" text-anchor="middle" font-family="-apple-system, 'SF Pro Display', system-ui, sans-serif" font-size="10" fill="#FF3B30" font-weight="500">imports entire app</text>

  <!-- Intent Extension -->
  <rect x="695" y="245" width="170" height="56" rx="12" ry="12" fill="#FFFFFF" stroke="#E5E5EA" stroke-width="1" filter="url(#shadow)"/>
  <text x="780" y="268" text-anchor="middle" font-family="-apple-system, 'SF Pro Display', system-ui, sans-serif" font-size="13" font-weight="600" fill="#1D1D1F">Intent</text>
  <text x="780" y="288" text-anchor="middle" font-family="-apple-system, 'SF Pro Display', system-ui, sans-serif" font-size="10" fill="#FF3B30" font-weight="500">imports entire app</text>

  <!-- Fat arrows from extensions to monolith -->
  <line x1="695" y1="133" x2="665" y2="200" stroke="#FF3B30" stroke-width="2" marker-end="url(#arrowRed)" opacity="0.7"/>
  <line x1="695" y1="203" x2="665" y2="280" stroke="#FF3B30" stroke-width="2" marker-end="url(#arrowRed)" opacity="0.7"/>
  <line x1="695" y1="273" x2="665" y2="350" stroke="#FF3B30" stroke-width="2" marker-end="url(#arrowRed)" opacity="0.7"/>

  <!-- Problem callouts on right side -->
  <text x="700" y="340" font-family="-apple-system, 'SF Pro Display', system-ui, sans-serif" font-size="10" font-weight="600" fill="#8E8E93" letter-spacing="1">PROBLEMS</text>

  <rect x="695" y="355" width="185" height="30" rx="8" ry="8" fill="#FFF0F0" stroke="#FFCCCC" stroke-width="1"/>
  <text x="703" y="374" font-family="-apple-system, 'SF Pro Display', system-ui, sans-serif" font-size="11" fill="#D63030">No dependency boundaries</text>

  <rect x="695" y="393" width="185" height="30" rx="8" ry="8" fill="#FFF0F0" stroke="#FFCCCC" stroke-width="1"/>
  <text x="703" y="412" font-family="-apple-system, 'SF Pro Display', system-ui, sans-serif" font-size="11" fill="#D63030">Singleton shared state</text>

  <rect x="695" y="431" width="185" height="30" rx="8" ry="8" fill="#FFF0F0" stroke="#FFCCCC" stroke-width="1"/>
  <text x="703" y="450" font-family="-apple-system, 'SF Pro Display', system-ui, sans-serif" font-size="11" fill="#D63030">Full recompile on change</text>

  <rect x="695" y="469" width="185" height="30" rx="8" ry="8" fill="#FFF0F0" stroke="#FFCCCC" stroke-width="1"/>
  <text x="703" y="488" font-family="-apple-system, 'SF Pro Display', system-ui, sans-serif" font-size="11" fill="#D63030">Untestable in isolation</text>

  <rect x="695" y="507" width="185" height="30" rx="8" ry="8" fill="#FFF0F0" stroke="#FFCCCC" stroke-width="1"/>
  <text x="703" y="526" font-family="-apple-system, 'SF Pro Display', system-ui, sans-serif" font-size="11" fill="#D63030">Merge conflicts frequent</text>

  <!-- Bottom caption -->
  <text x="450" y="580" text-anchor="middle" font-family="-apple-system, 'SF Pro Display', system-ui, sans-serif" font-size="11" fill="#8E8E93">Every file can reference every other file — no compilation firewall, no isolation, no parallel builds</text>
</svg>