<svg xmlns="http://www.w3.org/2000/svg" viewBox="0 0 900 700" width="900" height="700">
  <defs>
    <filter id="shadow" x="-4%" y="-4%" width="108%" height="112%">
      <feDropShadow dx="0" dy="2" stdDeviation="4" flood-color="rgba(0,0,0,0.08)"/>
    </filter>
    <filter id="shadowSmall" x="-6%" y="-8%" width="112%" height="120%">
      <feDropShadow dx="0" dy="1" stdDeviation="2" flood-color="rgba(0,0,0,0.06)"/>
    </filter>
    <marker id="arrowDown" viewBox="0 0 10 7" refX="5" refY="7" markerWidth="8" markerHeight="6" orient="auto">
      <polygon points="0 0, 10 0, 5 7" fill="#C7C7CC"/>
    </marker>
    <marker id="arrowDownBlue" viewBox="0 0 10 7" refX="5" refY="7" markerWidth="8" markerHeight="6" orient="auto">
      <polygon points="0 0, 10 0, 5 7" fill="#007AFF"/>
    </marker>
    <linearGradient id="layerFade" x1="0" y1="0" x2="0" y2="1">
      <stop offset="0%" stop-color="#FFFFFF" stop-opacity="0"/>
      <stop offset="100%" stop-color="#F2F2F7" stop-opacity="0.3"/>
    </linearGradient>
  </defs>

  <!-- Background -->
  <rect width="900" height="700" fill="#FFFFFF"/>

  <!-- Title -->
  <text x="40" y="38" font-family="-apple-system, 'SF Pro Display', system-ui, sans-serif" font-size="20" font-weight="700" fill="#1D1D1F">After</text>
  <text x="94" y="38" font-family="-apple-system, 'SF Pro Display', system-ui, sans-serif" font-size="20" font-weight="400" fill="#8E8E93"> — Feature-First Modular Architecture</text>

  <!-- Badge top-right -->
  <rect x="560" y="14" width="318" height="32" rx="16" ry="16" fill="#F0FFF4" stroke="#A3E8B8" stroke-width="1" filter="url(#shadowSmall)"/>
  <text x="580" y="35" font-family="-apple-system, 'SF Pro Display', system-ui, sans-serif" font-size="11" font-weight="600" fill="#248A3D">18 packages · Isolated builds · AI-ready</text>
  <circle cx="862" cy="30" r="6" fill="#34C759"/>
  <path d="M858,30 L861,33 L866,27" stroke="#FFFFFF" stroke-width="1.5" fill="none" stroke-linecap="round" stroke-linejoin="round"/>

  <!-- ==================== LAYER 1: APP SHELL ==================== -->
  <rect x="30" y="58" width="840" height="90" rx="14" ry="14" fill="#F9F9FB" stroke="#E5E5EA" stroke-width="1"/>

  <!-- Layer label -->
  <text x="48" y="78" font-family="-apple-system, 'SF Pro Display', system-ui, sans-serif" font-size="10" font-weight="600" fill="#8E8E93" letter-spacing="1.2">APP SHELL</text>

  <!-- Main app target -->
  <rect x="48" y="88" width="220" height="46" rx="10" ry="10" fill="#FFFFFF" stroke="#E5E5EA" stroke-width="1" filter="url(#shadowSmall)"/>
  <rect x="56" y="96" width="8" height="8" rx="2" ry="2" fill="#007AFF"/>
  <text x="72" y="106" font-family="-apple-system, 'SF Pro Display', system-ui, sans-serif" font-size="13" font-weight="600" fill="#1D1D1F">community.xcodeproj</text>
  <text x="72" y="124" font-family="-apple-system, 'SF Pro Display', system-ui, sans-serif" font-size="10" fill="#8E8E93">Thin orchestration shell</text>

  <!-- Extension targets -->
  <rect x="380" y="88" width="130" height="46" rx="10" ry="10" fill="#FFFFFF" stroke="#E5E5EA" stroke-width="1" filter="url(#shadowSmall)"/>
  <rect x="388" y="96" width="8" height="8" rx="2" ry="2" fill="#8E8E93"/>
  <text x="404" y="106" font-family="-apple-system, 'SF Pro Display', system-ui, sans-serif" font-size="12" font-weight="600" fill="#1D1D1F">Widget</text>
  <text x="404" y="122" font-family="-apple-system, 'SF Pro Display', system-ui, sans-serif" font-size="9" fill="#34C759" font-weight="500">FeatureHome only</text>

  <rect x="522" y="88" width="130" height="46" rx="10" ry="10" fill="#FFFFFF" stroke="#E5E5EA" stroke-width="1" filter="url(#shadowSmall)"/>
  <rect x="530" y="96" width="8" height="8" rx="2" ry="2" fill="#8E8E93"/>
  <text x="546" y="106" font-family="-apple-system, 'SF Pro Display', system-ui, sans-serif" font-size="12" font-weight="600" fill="#1D1D1F">Watch</text>
  <text x="546" y="122" font-family="-apple-system, 'SF Pro Display', system-ui, sans-serif" font-size="9" fill="#34C759" font-weight="500">CommunityUI only</text>

  <rect x="664" y="88" width="130" height="46" rx="10" ry="10" fill="#FFFFFF" stroke="#E5E5EA" stroke-width="1" filter="url(#shadowSmall)"/>
  <rect x="672" y="96" width="8" height="8" rx="2" ry="2" fill="#8E8E93"/>
  <text x="688" y="106" font-family="-apple-system, 'SF Pro Display', system-ui, sans-serif" font-size="12" font-weight="600" fill="#1D1D1F">Intent</text>
  <text x="688" y="122" font-family="-apple-system, 'SF Pro Display', system-ui, sans-serif" font-size="9" fill="#34C759" font-weight="500">Domain only</text>

  <!-- ==================== ARROWS: App Shell to Features ==================== -->
  <line x1="158" y1="148" x2="158" y2="170" stroke="#C7C7CC" stroke-width="1.5" marker-end="url(#arrowDown)"/>
  <line x1="445" y1="134" x2="445" y2="170" stroke="#C7C7CC" stroke-width="1.5" marker-end="url(#arrowDown)"/>
  <line x1="587" y1="134" x2="587" y2="170" stroke="#C7C7CC" stroke-width="1.5" marker-end="url(#arrowDown)"/>
  <line x1="729" y1="134" x2="729" y2="170" stroke="#C7C7CC" stroke-width="1.5" marker-end="url(#arrowDown)"/>

  <!-- ==================== LAYER 2: FEATURE PACKAGES ==================== -->
  <rect x="30" y="176" width="840" height="198" rx="14" ry="14" fill="#F6FEF8" stroke="#C8F0D2" stroke-width="1"/>

  <!-- Layer label -->
  <text x="48" y="196" font-family="-apple-system, 'SF Pro Display', system-ui, sans-serif" font-size="10" font-weight="600" fill="#248A3D" letter-spacing="1.2">FEATURE PACKAGES</text>
  <text x="210" y="196" font-family="-apple-system, 'SF Pro Display', system-ui, sans-serif" font-size="10" fill="#8E8E93">Each feature is a Swift Package — isolated, independently buildable</text>

  <!-- Row 1 of features -->
  <rect x="48" y="210" width="148" height="64" rx="10" ry="10" fill="#FFFFFF" stroke="#C8F0D2" stroke-width="1" filter="url(#shadowSmall)"/>
  <rect x="56" y="220" width="10" height="10" rx="3" ry="3" fill="#34C759"/>
  <text x="74" y="230" font-family="-apple-system, 'SF Pro Display', system-ui, sans-serif" font-size="12" font-weight="600" fill="#1D1D1F">FeatureHome</text>
  <text x="56" y="260" font-family="-apple-system, 'SF Pro Display', system-ui, sans-serif" font-size="10" fill="#8E8E93">~20 files</text>

  <rect x="208" y="210" width="148" height="64" rx="10" ry="10" fill="#FFFFFF" stroke="#C8F0D2" stroke-width="1" filter="url(#shadowSmall)"/>
  <rect x="216" y="220" width="10" height="10" rx="3" ry="3" fill="#34C759"/>
  <text x="234" y="230" font-family="-apple-system, 'SF Pro Display', system-ui, sans-serif" font-size="12" font-weight="600" fill="#1D1D1F">FeatureVisitors</text>
  <text x="216" y="260" font-family="-apple-system, 'SF Pro Display', system-ui, sans-serif" font-size="10" fill="#8E8E93">~25 files</text>

  <rect x="368" y="210" width="148" height="64" rx="10" ry="10" fill="#FFFFFF" stroke="#C8F0D2" stroke-width="1" filter="url(#shadowSmall)"/>
  <rect x="376" y="220" width="10" height="10" rx="3" ry="3" fill="#34C759"/>
  <text x="394" y="230" font-family="-apple-system, 'SF Pro Display', system-ui, sans-serif" font-size="12" font-weight="600" fill="#1D1D1F">FeatureHistory</text>
  <text x="376" y="260" font-family="-apple-system, 'SF Pro Display', system-ui, sans-serif" font-size="10" fill="#8E8E93">~15 files</text>

  <rect x="528" y="210" width="148" height="64" rx="10" ry="10" fill="#FFFFFF" stroke="#C8F0D2" stroke-width="1" filter="url(#shadowSmall)"/>
  <rect x="536" y="220" width="10" height="10" rx="3" ry="3" fill="#34C759"/>
  <text x="554" y="230" font-family="-apple-system, 'SF Pro Display', system-ui, sans-serif" font-size="12" font-weight="600" fill="#1D1D1F">FeatureAccount</text>
  <text x="536" y="260" font-family="-apple-system, 'SF Pro Display', system-ui, sans-serif" font-size="10" fill="#8E8E93">~20 files</text>

  <rect x="688" y="210" width="148" height="64" rx="10" ry="10" fill="#FFFFFF" stroke="#C8F0D2" stroke-width="1" filter="url(#shadowSmall)"/>
  <rect x="696" y="220" width="10" height="10" rx="3" ry="3" fill="#34C759"/>
  <text x="714" y="230" font-family="-apple-system, 'SF Pro Display', system-ui, sans-serif" font-size="12" font-weight="600" fill="#1D1D1F">FeatureAdmin</text>
  <text x="696" y="260" font-family="-apple-system, 'SF Pro Display', system-ui, sans-serif" font-size="10" fill="#8E8E93">~18 files</text>

  <!-- Row 2 of features -->
  <rect x="48" y="290" width="148" height="64" rx="10" ry="10" fill="#FFFFFF" stroke="#C8F0D2" stroke-width="1" filter="url(#shadowSmall)"/>
  <rect x="56" y="300" width="10" height="10" rx="3" ry="3" fill="#34C759"/>
  <text x="74" y="310" font-family="-apple-system, 'SF Pro Display', system-ui, sans-serif" font-size="11" font-weight="600" fill="#1D1D1F">FeatureOnboarding</text>
  <text x="56" y="340" font-family="-apple-system, 'SF Pro Display', system-ui, sans-serif" font-size="10" fill="#8E8E93">~22 files</text>

  <rect x="208" y="290" width="148" height="64" rx="10" ry="10" fill="#FFFFFF" stroke="#C8F0D2" stroke-width="1" filter="url(#shadowSmall)"/>
  <rect x="216" y="300" width="10" height="10" rx="3" ry="3" fill="#34C759"/>
  <text x="234" y="310" font-family="-apple-system, 'SF Pro Display', system-ui, sans-serif" font-size="10.5" font-weight="600" fill="#1D1D1F">FeatureVideoCalling</text>
  <text x="216" y="340" font-family="-apple-system, 'SF Pro Display', system-ui, sans-serif" font-size="10" fill="#8E8E93">~15 files</text>

  <rect x="368" y="290" width="162" height="64" rx="10" ry="10" fill="#FFFFFF" stroke="#C8F0D2" stroke-width="1" filter="url(#shadowSmall)"/>
  <rect x="376" y="300" width="10" height="10" rx="3" ry="3" fill="#34C759"/>
  <text x="394" y="310" font-family="-apple-system, 'SF Pro Display', system-ui, sans-serif" font-size="9.5" font-weight="600" fill="#1D1D1F">FeatureMobileCredentials</text>
  <text x="376" y="340" font-family="-apple-system, 'SF Pro Display', system-ui, sans-serif" font-size="10" fill="#8E8E93">~18 files</text>

  <rect x="542" y="290" width="148" height="64" rx="10" ry="10" fill="#FFFFFF" stroke="#C8F0D2" stroke-width="1" filter="url(#shadowSmall)"/>
  <rect x="550" y="300" width="10" height="10" rx="3" ry="3" fill="#34C759"/>
  <text x="568" y="310" font-family="-apple-system, 'SF Pro Display', system-ui, sans-serif" font-size="12" font-weight="600" fill="#1D1D1F">FeatureContent</text>
  <text x="550" y="340" font-family="-apple-system, 'SF Pro Display', system-ui, sans-serif" font-size="10" fill="#8E8E93">~12 files</text>

  <rect x="702" y="290" width="160" height="64" rx="10" ry="10" fill="#FFFFFF" stroke="#C8F0D2" stroke-width="1" filter="url(#shadowSmall)"/>
  <rect x="710" y="300" width="10" height="10" rx="3" ry="3" fill="#34C759"/>
  <text x="728" y="310" font-family="-apple-system, 'SF Pro Display', system-ui, sans-serif" font-size="10" font-weight="600" fill="#1D1D1F">FeatureAnnouncements</text>
  <text x="710" y="340" font-family="-apple-system, 'SF Pro Display', system-ui, sans-serif" font-size="10" fill="#8E8E93">~14 files</text>

  <!-- ==================== ARROWS: Features to Domain ==================== -->
  <!-- Multiple downward arrows showing features depend on domain -->
  <line x1="122" y1="374" x2="122" y2="404" stroke="#C7C7CC" stroke-width="1.5" marker-end="url(#arrowDown)"/>
  <line x1="282" y1="374" x2="282" y2="404" stroke="#C7C7CC" stroke-width="1.5" marker-end="url(#arrowDown)"/>
  <line x1="449" y1="374" x2="449" y2="404" stroke="#C7C7CC" stroke-width="1.5" marker-end="url(#arrowDown)"/>
  <line x1="616" y1="374" x2="616" y2="404" stroke="#C7C7CC" stroke-width="1.5" marker-end="url(#arrowDown)"/>
  <line x1="762" y1="374" x2="762" y2="404" stroke="#C7C7CC" stroke-width="1.5" marker-end="url(#arrowDown)"/>

  <!-- ==================== LAYER 3: DOMAIN ==================== -->
  <rect x="30" y="410" width="840" height="76" rx="14" ry="14" fill="#F0F5FF" stroke="#B3D4FF" stroke-width="1"/>

  <!-- Layer label -->
  <text x="48" y="430" font-family="-apple-system, 'SF Pro Display', system-ui, sans-serif" font-size="10" font-weight="600" fill="#007AFF" letter-spacing="1.2">DOMAIN</text>

  <!-- Domain package -->
  <rect x="48" y="440" width="804" height="34" rx="8" ry="8" fill="#FFFFFF" stroke="#B3D4FF" stroke-width="1" filter="url(#shadowSmall)"/>
  <rect x="58" y="449" width="10" height="10" rx="3" ry="3" fill="#007AFF"/>
  <text x="78" y="462" font-family="-apple-system, 'SF Pro Display', system-ui, sans-serif" font-size="13" font-weight="600" fill="#1D1D1F">CommunityDomain</text>
  <text x="240" y="462" font-family="-apple-system, 'SF Pro Display', system-ui, sans-serif" font-size="11" fill="#8E8E93">Use Cases  ·  Repository Protocols  ·  Domain Models  ·  Business Rules</text>

  <!-- ==================== ARROWS: Domain to Core ==================== -->
  <line x1="200" y1="486" x2="200" y2="514" stroke="#C7C7CC" stroke-width="1.5" marker-end="url(#arrowDown)"/>
  <line x1="450" y1="486" x2="450" y2="514" stroke="#C7C7CC" stroke-width="1.5" marker-end="url(#arrowDown)"/>
  <line x1="700" y1="486" x2="700" y2="514" stroke="#C7C7CC" stroke-width="1.5" marker-end="url(#arrowDown)"/>

  <!-- ==================== LAYER 4: CORE / INFRASTRUCTURE ==================== -->
  <rect x="30" y="520" width="840" height="82" rx="14" ry="14" fill="#F0FAFE" stroke="#ADE4F9" stroke-width="1"/>

  <!-- Layer label -->
  <text x="48" y="540" font-family="-apple-system, 'SF Pro Display', system-ui, sans-serif" font-size="10" font-weight="600" fill="#0A84B0" letter-spacing="1.2">CORE / INFRASTRUCTURE</text>

  <!-- Core packages -->
  <rect x="48" y="550" width="186" height="38" rx="8" ry="8" fill="#FFFFFF" stroke="#ADE4F9" stroke-width="1" filter="url(#shadowSmall)"/>
  <rect x="58" y="562" width="10" height="10" rx="3" ry="3" fill="#5AC8FA"/>
  <text x="76" y="574" font-family="-apple-system, 'SF Pro Display', system-ui, sans-serif" font-size="12" font-weight="600" fill="#1D1D1F">CommunityUI</text>

  <rect x="250" y="550" width="186" height="38" rx="8" ry="8" fill="#FFFFFF" stroke="#ADE4F9" stroke-width="1" filter="url(#shadowSmall)"/>
  <rect x="260" y="562" width="10" height="10" rx="3" ry="3" fill="#AF52DE"/>
  <text x="278" y="574" font-family="-apple-system, 'SF Pro Display', system-ui, sans-serif" font-size="12" font-weight="600" fill="#1D1D1F">CommunityAnalytics</text>

  <rect x="452" y="550" width="196" height="38" rx="8" ry="8" fill="#FFFFFF" stroke="#ADE4F9" stroke-width="1" filter="url(#shadowSmall)"/>
  <rect x="462" y="562" width="10" height="10" rx="3" ry="3" fill="#5AC8FA"/>
  <text x="480" y="574" font-family="-apple-system, 'SF Pro Display', system-ui, sans-serif" font-size="12" font-weight="600" fill="#1D1D1F">CommunityNetworking</text>

  <rect x="664" y="550" width="186" height="38" rx="8" ry="8" fill="#FFFFFF" stroke="#ADE4F9" stroke-width="1" filter="url(#shadowSmall)"/>
  <rect x="674" y="562" width="10" height="10" rx="3" ry="3" fill="#5AC8FA"/>
  <text x="692" y="574" font-family="-apple-system, 'SF Pro Display', system-ui, sans-serif" font-size="12" font-weight="600" fill="#1D1D1F">CommunityMockData</text>

  <!-- ==================== ARROWS: Core to Data ==================== -->
  <line x1="200" y1="602" x2="200" y2="626" stroke="#C7C7CC" stroke-width="1.5" marker-end="url(#arrowDown)"/>
  <line x1="450" y1="602" x2="450" y2="626" stroke="#C7C7CC" stroke-width="1.5" marker-end="url(#arrowDown)"/>
  <line x1="700" y1="602" x2="700" y2="626" stroke="#C7C7CC" stroke-width="1.5" marker-end="url(#arrowDown)"/>

  <!-- ==================== LAYER 5: DATA / VENDOR ==================== -->
  <rect x="30" y="632" width="840" height="54" rx="14" ry="14" fill="#F5F5FA" stroke="#E5E5EA" stroke-width="1"/>

  <!-- Layer label -->
  <text x="48" y="652" font-family="-apple-system, 'SF Pro Display', system-ui, sans-serif" font-size="10" font-weight="600" fill="#8E8E93" letter-spacing="1.2">DATA / VENDOR</text>

  <!-- Data packages -->
  <rect x="48" y="656" width="170" height="22" rx="6" ry="6" fill="#FFFFFF" stroke="#E5E5EA" stroke-width="1"/>
  <text x="60" y="672" font-family="-apple-system, 'SF Pro Display', system-ui, sans-serif" font-size="11" font-weight="500" fill="#1D1D1F">CommunityDataModel</text>

  <rect x="234" y="656" width="170" height="22" rx="6" ry="6" fill="#FFFFFF" stroke="#E5E5EA" stroke-width="1"/>
  <text x="246" y="672" font-family="-apple-system, 'SF Pro Display', system-ui, sans-serif" font-size="11" font-weight="500" fill="#1D1D1F">CommunityKeychain</text>

  <rect x="420" y="656" width="170" height="22" rx="6" ry="6" fill="#FFFFFF" stroke="#E5E5EA" stroke-width="1"/>
  <text x="432" y="672" font-family="-apple-system, 'SF Pro Display', system-ui, sans-serif" font-size="11" font-weight="500" fill="#1D1D1F">MyQAttestation</text>

  <rect x="606" y="656" width="170" height="22" rx="6" ry="6" fill="#FFFFFF" stroke="#E5E5EA" stroke-width="1"/>
  <text x="618" y="672" font-family="-apple-system, 'SF Pro Display', system-ui, sans-serif" font-size="11" font-weight="500" fill="#1D1D1F">MyQSmartReader</text>

  <!-- ==================== NO HORIZONTAL ARROWS annotation ==================== -->
  <!-- Subtle "no cross-feature" indicators between feature cards -->
  <g opacity="0.35">
    <!-- Row 1 gaps -->
    <line x1="200" y1="242" x2="204" y2="242" stroke="#FF3B30" stroke-width="2" stroke-linecap="round"/>
    <line x1="198" y1="239" x2="206" y2="245" stroke="#FF3B30" stroke-width="1.2" stroke-linecap="round"/>
    <line x1="198" y1="245" x2="206" y2="239" stroke="#FF3B30" stroke-width="1.2" stroke-linecap="round"/>

    <line x1="360" y1="242" x2="364" y2="242" stroke="#FF3B30" stroke-width="2" stroke-linecap="round"/>
    <line x1="358" y1="239" x2="366" y2="245" stroke="#FF3B30" stroke-width="1.2" stroke-linecap="round"/>
    <line x1="358" y1="245" x2="366" y2="239" stroke="#FF3B30" stroke-width="1.2" stroke-linecap="round"/>

    <line x1="520" y1="242" x2="524" y2="242" stroke="#FF3B30" stroke-width="2" stroke-linecap="round"/>
    <line x1="518" y1="239" x2="526" y2="245" stroke="#FF3B30" stroke-width="1.2" stroke-linecap="round"/>
    <line x1="518" y1="245" x2="526" y2="239" stroke="#FF3B30" stroke-width="1.2" stroke-linecap="round"/>

    <line x1="680" y1="242" x2="684" y2="242" stroke="#FF3B30" stroke-width="2" stroke-linecap="round"/>
    <line x1="678" y1="239" x2="686" y2="245" stroke="#FF3B30" stroke-width="1.2" stroke-linecap="round"/>
    <line x1="678" y1="245" x2="686" y2="239" stroke="#FF3B30" stroke-width="1.2" stroke-linecap="round"/>
  </g>

  <!-- Bottom caption -->
  <text x="450" y="696" text-anchor="middle" font-family="-apple-system, 'SF Pro Display', system-ui, sans-serif" font-size="11" fill="#8E8E93">Dependencies flow strictly downward — no cross-feature imports, no circular references, compiler-enforced boundaries</text>
</svg>